<?xml version="1.0" encoding="utf-8"?>
<!-- Generator: Adobe Illustrator 23.0.4, SVG Export Plug-In . SVG Version: 6.00 Build 0)  -->
<svg version="1.1" id="Layer_2" xmlns="http://www.w3.org/2000/svg" xmlns:xlink="http://www.w3.org/1999/xlink" x="0px" y="0px"
	 viewBox="0 0 376.2 526.5" style="enable-background:new 0 0 376.2 526.5;" xml:space="preserve">
<style type="text/css">
	.st0{fill-rule:evenodd;clip-rule:evenodd;fill:#555555;}
</style>
<path id="path59_1_" class="st0" d="M182.5,390.4v0.5h0.5L182.5,390.4z M182.5,380.8c-0.3,1.2-0.8,2.3-1.4,3.4h0.5v0.5h0.5v-0.5h0.5
	v-0.5H182c0-0.3,0-0.6,0-1h0.5C182.5,382.1,182.5,381.4,182.5,380.8z M204.6,279v0.5h0.5L204.6,279z M197.8,277.1h-0.5l0.5,0.5
	V277.1z M159.4,427.3H159v0.5h-0.5v0.5h0.5v-0.5h0.5V427.3z M76.9,448.9c-1.5,0.4-2.4,0.4-3.8,0c0.1,0.4,0,0.8-0.5,1
	c0.7,0.5,1.5,0.6,2.4,0.5c-0.4,0.9-1.1,1.7-1.9,2.4c2,0.9,1.6,1.7-0.5,2.4c0,0.5,0,1,0,1.4h-0.5v0.5c0.3,0,0.6,0,1,0v0.5h-0.5
	c0,0.5,0,1,0,1.4c0.5-0.2,0.9-0.3,1.4-0.5v0.5c-0.9,0-1.7,0.3-2.4,1c0.4,0.2,0.6,0.5,0.5,1c-0.7,0-1,0.3-1,1l-1,0.5c0,0.3,0,0.6,0,1
	h1v0.5c-1,0-1.9,0-2.9,0c-0.2,2.5-1.4,3-3.4,1.4l0.5-1h-0.5v0.5h-0.5l0.5,0.5c-0.4,0.5-0.9,0.8-1.4,1c-2.6-0.9-5.3-1.5-8.2-1.9
	c0-0.5,0-1,0-1.4c-0.5,0-1,0-1.4,0v0.5h0.5v0.5c-1.8,1-3.2,2.2-4.3,3.8c0.7,0.5,0.7,1,0,1.4c0-0.3,0-0.6,0-1
	c-1.1-0.1-1.6,0.4-1.4,1.4c-1.1,2.4-0.1,4.9,2.9,5.8v-0.5c2.8-1.4,6.2-2.4,9.6-2.9v-0.5c1.8-0.3,3.6-0.8,5.3-1.4v-0.5h1v-0.5h0.5
	v-0.5h1c0-0.3,0-0.6,0-1c0.3,0,0.6,0,1,0v0.5l1-0.5h-0.5v-0.5c0.5,0,1,0,1.4,0v-0.5c0.8,0,1.3,0.2,1.9,0.5v-0.5H74
	c-0.4-0.2-0.6-0.5-0.5-1H74v0.5c0.3,0,0.6,0,1,0v0.5c0.3,0,0.6,0,1,0c0-0.6,0-1.3,0-1.9h-0.5c-0.2-0.8-0.3-1.6-0.5-2.4h-0.5v-0.5
	c0.5,0,1,0,1.4,0c-0.1,0.4,0,0.8,0.5,1c-0.5,0.4-0.6,0.8-0.5,1.4l1,0.5v0.5l0.5-0.5l0.5,1c-0.8-2-0.8-3.8,0.5-4.8
	c-0.5,0.3-0.7,0.8-0.5,1.4h0.5c0-0.3,0-0.6,0-1h0.5c-0.1,0.4,0,0.8,0.5,1c0-0.5,0-1,0-1.4h-0.5v-0.5c0.5,0,1,0,1.4,0v0.5h0.5v1h0.5
	c-1,0.6-1.9,1.2-1.4,2.4c-0.7,0.7-0.7,1.4,0,1.9c-0.2-2.2,0.7-3.5,2.9-3.8v0.5h-0.5v0.5c0.4-0.1,0.8,0,1,0.5c0-0.3,0-0.6,0-1h0.5
	c0-0.3,0-0.6,0-1c0.9,0.8,1.6,0.6,1.9-0.5l1-0.5H86v-0.5h-0.5V460H85c0-0.3,0-0.6,0-1h-0.5c0-0.5,0-1,0-1.4
	c-0.9,0.4-1.8,0.5-2.9,0.5c0-0.3,0-0.6,0-1l-1-0.5c0-0.5,0-1,0-1.4h-0.5c0,0.3,0,0.6,0,1l-1,0.5v0.5c-0.6,0-1.3,0-1.9,0v0.5
	c-0.3,0-0.6,0-1,0c0-0.3,0-0.6,0-1h1v-1c-0.5-0.2-0.9-0.3-1.4-0.5c0.2-0.4,0.5-0.6,1-0.5c0-1.3,0.3-2.3,1-3.4c-0.3,0-0.6,0-1,0
	C76.9,450.5,76.9,449.7,76.9,448.9z M145,449.9h-0.5v0.5h0.5V449.9z M183.4,351c-0.3,0.7-0.7,1.3-1.4,1.4c-0.3,1-0.6,1.9-1,2.9
	c1.1-0.1,1.6,0.4,1.4,1.4c-0.5,0-1,0-1.4,0v0.5h-0.5c0,0.8,0,1.6,0,2.4h-0.5c0,0.5,0,1,0,1.4h-0.5c0,0.3,0,0.6,0,1h0.5
	c0,0.5,0,1,0,1.4h0.5c-0.1,0.9,0.1,1.7,0.5,2.4c0.3,0,0.6,0,1,0l-0.5,0.5c-0.3,1.6,0.2,3.2,1.4,4.3l0.5,1c-0.6,0.5-0.9,1.1-1,1.9
	l0.5,0.5c0.3-3.2,0.4-6.1,0.5-9.1H183v-0.5h-0.5l0.5-0.5c-0.7-1.3-0.7-3,0-4.3c-0.6,0-1.1-0.4-1.4-1h0.5c0.2-1.5,1.1-2.9,2.4-3.8
	c-0.4-0.2-0.6-0.5-0.5-1c0.3,0,0.6,0,1,0C184.6,352.9,184,351.9,183.4,351z M96.1,450.9h-0.5c0.1,0.4,0,0.8-0.5,1
	c0-0.9-0.6-1.1-1.4-1v0.5c-0.9,0.2-1.2,0.9-1,1.9c0.3,0,0.6,0,1,0c-0.2,0.4-0.5,0.6-1,0.5c0,0.5,0,1,0,1.4h-0.5c0-0.6,0-1.3,0-1.9
	c-0.3,0-0.6,0-1,0c0,0.3,0,0.6,0,1h-0.5v-0.5c-0.3,0-0.6,0-1,0v0.5h-0.5c-0.2,0.8-0.3,1.6-0.5,2.4h-0.5v-0.5c-0.5,0-1,0-1.4,0
	c0.2,0.5,0.3,0.9,0.5,1.4h0.5v0.5c0.7,0,1-0.3,1-1h0.5v0.5h-0.5v0.5h-0.5c0,0.3,0,0.6,0,1c0.3,0,0.6,0,1,0v0.5
	c-0.9-0.1-1.7,0.1-2.4,0.5c0,0.3,0,0.6,0,1h0.5v0.5h0.5v-0.5c0.5-0.2,0.9-0.3,1.4-0.5l-0.5,1c0.4-0.2,0.6-0.5,0.5-1
	c0.8,0.4,1.6,0.6,2.4,0.5v-1c0.2,0.4,0.5,0.6,1,0.5c0.2-0.8,0.6-1.3,1.4-1.4v1.4l1,0.5l0.5-1v0.5h0.5V460c0.4,0.4,0.9,0.6,1.4,0.5
	c0.1-0.8,0.2-1.3,0.5-1.9c0.5,0.6,1.2,0.9,1.9,1c0.2-1.3,0.1-2.7-0.5-3.8c-0.9,0.6-2,0.7-2.9,0c-0.7,0.7-0.7,1.6,0,2.4
	c-0.3,0-0.6,0-1,0c0.2-0.9,0.1-1.8-0.5-2.4h0.5v-0.5h-0.5l1-1.4l-0.5,1h0.5v-0.5h0.5l0.5-1h0.5c0-0.3,0-0.6,0-1c-0.3,0-0.6,0-1,0
	v0.5h-0.5c0-0.3,0-0.6,0-1h-0.5v-0.5h0.5V450.9z M227.1,210.4l0.5,1C227.7,210.9,227.5,210.6,227.1,210.4z M182,297.3h-0.5v0.5h0.5
	V297.3z M179.1,313.1c-0.3,0-0.6,0-1,0v0.5h0.5c0,0.3,0,0.6,0,1h0.5C179.1,314.1,179.1,313.6,179.1,313.1z M188.2,327.5
	c0.2,0.5,0.3,0.9,0.5,1.4h0.5C189.3,328.3,189,327.8,188.2,327.5z M253,171.5c0,0.5,0,1,0,1.4l0.5-1L253,171.5z M240.6,83.2
	c0,0.5,0,1,0,1.4h-0.5c-0.6,9.1-2.3,33.3,2.9,39.4c-1,0.6-1.9,1.5-2.4,2.4h-0.5c-0.1,0.8-0.6,1.4-1.4,1.4c-0.7,1.5-1.6,3.3-2.4,4.8
	c1.4,3.6,3.2,7.4,4.8,10.6c-1.4,5.7,0.1,9.7,3.8,13.4l1.4,1c-0.7,1.5-0.7,3.3,0,4.8v-1c0.5,0.6,0.6,1.2,0.5,1.9
	c7.7,4.1,15.4,8.6,23,13c-0.8-0.4-1.6-0.8-2.4-1l0.5,0.5h-0.5v0.5l0.5-0.5l1.4,0.5c-0.5,0.3-0.7,0.8-0.5,1.4l1,0.5l-1.4,0.5l0.5,1
	c-0.3,0.8-0.7,1.4-1.4,1.9c0.5,0.5,0.7,1.1,0.5,1.9l-1,0.5l1,1c0.1,3.1-0.3,5.6-1.4,8.2c0.7,1,0.7,2.2,0,3.4h0.5l-1,0.5
	c-0.9-2.2-1.9-3.9-3.4-5.8h-0.5v-0.5c-1-0.7-2-1.6-2.9-2.4c0,0.3,0,0.6,0,1c-1.1,0-2-0.3-2.9-1c-0.6-1.1-1.6-2.7-2.4-3.8
	c-0.5,0-1,0-1.4,0c0.1-0.4,0-0.8-0.5-1c0.4-2.4,2-3.9,4.3-4.3v0.5c0.8-0.7,1.6-0.7,2.4,0l1-1.4h0.5c0.6-1.3,0.6-2.6,0-3.8
	c-1,0.1-1.8-0.4-2.4-1.4c-1,1.6-2.7,3.3-4.3,4.3l-0.5,1l-0.5-0.5c1.6-1,2.7-2.5,3.4-4.3c-0.6-0.2-1.1-0.1-1.4,0.5
	c-1-0.4-1.5-0.7-2.4-1.4c0.2-2.7-0.5-5.1-1.9-7.2c-0.3,0-0.6,0-1,0c0.3,1.2,0.9,2.1,1.9,2.9c-0.6,1.2-0.7,2.5-0.5,3.8l-1-3.4
	c-0.2,1.3,0,2.6,0.5,3.8h0.5l-0.5,0.5c0.3,1.4,0.7,3.3,1,4.8l-0.5,1c0.7,0.8,0.7,1.6,0,2.4l-1-1.4c1.1,5.3,4.5,9.8,9.1,12v-0.5
	c0.9,0.3,1.8,0.5,2.9,0.5c1.3,1.8,2.3,3.6,2.9,5.8c2.5,0.7,3.7,2.4,2.9,4.8l0.5,0.5c-0.4,1-1,1.8-1.9,2.4c0.2,1.5,0,2.9-0.5,4.3
	l-1.9-1.9h0.5c0-1.2-0.5-2.2-1.4-2.9l1,2.4c-0.8,3.2-1.8,6.3-2.9,9.6c-2.3-1.8-3.2-4.4-2.4-7.2l0.5,0.5c0-1,0-1.9,0-2.9
	c-5.2-3.9-11.2-5.1-17.8-3.8c-1.3-3-2-6.3-1.9-9.6c-0.4,0.4-0.6,0.9-0.5,1.4l-1.4-1.9h-0.5c-0.5-1.1-0.7-2.2-0.5-3.4l1-0.5l-0.5-0.5
	h0.5v-0.5l0.5,0.5l-0.5-1.4c-0.2,0.4-0.5,0.6-1,0.5c-0.2,0.8-0.3,1.6-0.5,2.4c-0.9-0.7-1.5-1.2-2.4-1.9c1.2-2,1.2-4.3,0-6.2
	c0.3-0.6,0.8-0.9,1.4-1l-0.5-1v1c-0.5,0.1-1-0.1-1.4-0.5v-0.5h0.5l0.5-1c-0.6-1.1-1.3-2.2-1.9-3.4c0.1,1,0.4,1.9,1,2.9
	c-0.4-0.1-0.8,0-1,0.5c0.7,0.8,0.7,1.8,0,2.9h-1l-0.5-1l-0.5,1c1.5,1.6,2,3.3,1.9,5.3h0.5c-0.4,0.2-0.6,0.5-0.5,1l-1,0.5
	c-0.2-0.4-0.5-0.6-1-0.5c0.2-5.9-1.4-10.8-5.3-14.4c1.4-2.2,2.1-4.6,1.9-7.2h0.5c-0.3-1.4-1-2.8-1.9-3.8l-1,0.5l-1-2.4
	c1.3-1.3,1.3-2.6,0-3.8v1c-0.5-0.9-0.8-1.9-1-2.9l-0.5,1c0.1-1.8-1-3-2.9-3.4c0.3-2.9-1.4-5.4-4.3-6.2l1-1c-1.1-1.3-1.9-2.7-2.4-4.3
	c-0.8,0-1.6,0.2-2.4,0.5c0.4-0.5,0.9-0.8,1.4-1c0.5-0.8,0.6-1.7,0-2.4l0.5-0.5l0.5,0.5c1.5-1.1,2.8-2.5,3.8-3.8c0-0.6,0-1.3,0-1.9
	c3.3-2.9,6.1-6.9,7.7-11c-0.8-0.3-1.4-0.7-1.9-1.4c0.8-2.2,1.6-3.9,2.9-5.8c-0.3-0.3-0.6-0.6-1-1v0.5c-1.4-0.4-1.2-1.2,0-2.4
	l0.5,0.5c-0.3-0.7-0.4-1.1-0.5-1.9c-1.1-0.7-2.2-1.2-3.4-1.4c0.2-0.6,0.1-1.1-0.5-1.4l0.5-1c-1.5-2.5-2.9-5.7-3.8-8.6h-1
	c1.2,2.2,2.2,4.5,2.9,6.7c0.1,3.5,0.1,8.8,0,12c2.1,6.9,0.3,13.4-5.3,17.8c0.5,1,0.7,2.2,0.5,3.4c-0.8,0-1.5-0.4-1.9-1
	c-1.7,0.3-3.1,1.1-4.3,2.4c-1.4-2.2-2.9-4.4-4.3-6.7c0.5,1,0.8,2.2,1,3.4h0.5c0.3,1.6,1,3.3,1.9,4.8l-1,1h1v0.5H207
	c0.2,0.4,0.5,0.6,1,0.5l-1,0.5c0.5,0.5,1.2,0.7,1.9,0.5v0.5l-1,0.5h1c-0.7,0.8-0.7,1.8,0,2.9c0.2-0.4,0.5-0.6,1-0.5l-0.5,0.5
	l0.5,0.5l-1.4,0.5c0.6-0.2,1.1-0.1,1.4,0.5c0.3-0.8,0.8-1.1,1.4-1v0.5l-1.4,1c0.2,0.4,0.5,0.6,1,0.5v0.5l1.4-1
	c2.4,2.6,4.7,5.5,6.7,8.2c-0.4,0.8-0.6,1.6-0.5,2.4c-1.8,0.1-3,0.9-3.4,2.4l-0.5-1h-0.5l0.5,1l-0.5,0.5l-0.5-1h-0.5
	c0.5,3.2,0.8,6.8,1,10.1c0.4,0.9,1.1,1.2,1.9,1c0.4,1.8,0.4,3.4,0,5.3c-0.4-1.3-0.9-2.6-1.4-3.8c-0.4,0.2-0.6,0.5-0.5,1h-0.5
	c0.5,0.5,1,1,1.4,1.4c-0.4,0.2-0.6,0.5-0.5,1h0.5c0.3,1.5,0.6,2.8,1,4.3c0.6,0.2,1.3,0.3,1.9,0.5c0,1.4,0,2.9,0,4.3
	c-1.4,0.4-2.4,1.2-3.4,2.4c-0.4-0.4-0.9-0.6-1.4-0.5c1.6,0.9,3.1,0.6,4.3-1c1.2,0.8,2.5,1.2,3.8,1.4c-2,1.7-3,3.9-2.4,6.2
	c-1.4,0.7-1.8-0.5-1.9-1.9c-0.6,0.7-1.4,1.2-2.4,1.4c-0.2-0.4-0.5-0.6-1-0.5l0.5,2.4c-0.7,0.5-1.5,0.6-2.4,0.5
	c0.7,0.4,1.5,0.7,2.4,1l1.4-1.4c1.4,3.1,3.2,5.8,5.3,8.2c2.5,3.2,6.5,4.5,11,3.8c-1.5,1-3,2.1-4.3,3.4l-0.5-0.5c0.1,0.4,0,0.8-0.5,1
	v-1c-0.8-0.6-1.7-1.1-2.4-1.4c0,0.5,0,1,0,1.4h-0.5v0.5c-0.6-0.1-1.1,0-1.4,0.5c1.2,0.1,2.3-0.1,3.4-0.5c0.9,4.7,1.8,10.4,2.4,14.4
	c-0.4,0.9-0.6,1.9-0.5,2.9c-3.4,4.5-6,10-7.7,15.8c-2.4-1.1-4.4-2.6-6.2-4.3c-0.5-2-0.7-4.4-0.5-6.7h0.5v-1h1
	c-0.4-0.9-0.6-1.6-0.5-2.9l-0.5,1c-0.4-0.2-0.6-0.5-0.5-1l1-0.5h-0.5v-0.5l-0.5,0.5l-0.5-1.4c0.2-0.4,0.5-0.6,1-0.5
	c0.9-0.9,1.2-2,0.5-2.9c0.3-0.3,0.6-0.6,1-1l0.5,1l0.5-0.5l-0.5-1c0.9-0.6,1.8-1,2.9-1l-1-1c-1.4,1.4-2.8,1.6-4.3,0.5
	c0.3,0.3,0.6,0.6,1,1c-0.7,0.8-1.6,0.6-2.4-0.5l0.5,0.5h-0.5c0.3,0.6,0.8,0.9,1.4,1c0,0.8,0,1.6,0,2.4c-0.3,0-0.6,0-1,0
	c-0.3-1.1-0.9-1.9-1.9-2.4l0.5,1h0.5c-0.2,1,0.1,1.8,1,2.4c-1.1,1.5-0.8,3.2,0.5,4.8c-0.6,0.5-1.2,0.6-1.9,0.5v0.5
	c-0.4-0.7-1.1-0.8-1.9-0.5V232c-0.5,0.1-1-0.1-1.4-0.5c-0.5-2.8-1.3-5.5-2.4-8.2c-0.6,0-1.1,0.4-1.4,1c0-0.3,0-0.6,0-1l-0.5,0.5
	v-0.5c-1.7-0.4-2.9-1.3-3.4-2.9h-0.5l0.5,1c-0.8,0.5-1.8,0.7-2.9,0.5c2.6,0.4,5,1.6,7.2,3.4c0.6,1.1,1.2,2.2,1.9,3.4
	c-0.2,1-0.8,1.5-1.9,1.4l-1.4-1.4v0.5c-1,0.2-2,0-2.9-0.5c1.2,1.5,3,2.4,4.8,2.4v0.5c0.8,0.2,1.4,0.1,1.9-0.5l0.5,0.5l-1.9,1
	c-1.1-0.7-2.4-0.7-3.4,0V232c-3.9-0.3-7.4-0.7-11.5-1.4v-0.5h-1.4l1,0.5c-1.3,0-2.6,0-3.8,0l-1-1.4h0.5c0-0.6,0.4-1.1,1-1.4l-1-1.4
	h-1.4c0-0.5,0-1,0-1.4h-0.5v-0.5c-0.7-0.5-1.5-0.6-2.4-0.5l-0.5-1c-0.3,0.3-0.6,0.6-1,1h0.5c0.1,1.9,1.1,3,2.9,2.9v1h0.5
	c-0.3,1-1,1.7-1.9,1.9l0.5,0.5l-0.5,1c1,1.6,1.5,3.7,1.4,5.8h0.5c0.5,1,1,1.9,1.4,2.9l1.4-0.5v1.4c-0.8-0.7-1.6-0.7-2.4,0
	c1.6,5.5,0.4,10.3-3.8,14.4l0.5,1.9c-0.4,0.4-0.9,0.6-1.4,0.5c0.1,0.4,0,0.8-0.5,1c2.4,0.8,3.5-0.4,3.8-2.9L182,255
	c3.3-2.2,4.9-5.6,4.8-9.6l-0.5-0.5l0.5-0.5c3.1,0.8,5.8-0.2,7.7-2.9c1.5,2.3,3.8,4,6.2,4.8v0.5c1-0.1,2,0,2.9,0.5
	c-0.3,0.6-0.6,1.3-1,1.9c0.5,0.7,0.7,1.5,0.5,2.4l-1,0.5l-0.5-0.5l-1.9,1c-2.9-1-5.6,0.1-7.2,2.9h-1.4v0.5c-0.4-0.4-0.9-0.6-1.4-0.5
	c-0.1,1-0.6,1.8-1.4,2.4c1.1-0.3,2-1,2.4-1.9c0.5,0.2,0.9,0.3,1.4,0.5v0.5h0.5v-0.5c0.8,0,1.3-0.2,1.9-0.5v-0.5c0.3,0,0.6,0,1,0V255
	h0.5c0-0.3,0-0.6,0-1c0.5,0,1,0,1.4,0v-0.5c1.2-0.1,2.4,0,3.4,0.5v0.5h0.5c0.2,1.1,0.9,1.6,1.9,1.4v0.5c0.3-0.3,0.6-0.6,1-1
	c-0.2,0.7,0,1.4,0.5,1.9h-0.5c0,1.6,0,3.2,0,4.8h-0.5v0.5h0.5c0,2.6,0.3,4.8,1,7.2h0.5c0.7,1.4,1.2,2.7,1.4,4.3h-0.5v0.5
	c-0.5,0.2-0.9,0.3-1.4,0.5c0,0.3,0,0.6,0,1c-0.5,0-1,0-1.4,0v-0.5c-0.5,0-1,0-1.4,0v-0.5h-0.5v-0.5h0.5v-0.5h-0.5v-0.5
	c-0.3,0-0.6,0-1,0c0-0.3,0-0.6,0-1c-0.2,0.4-0.5,0.6-1,0.5c-0.1,0.4,0,0.8,0.5,1h-0.5c0.3,1.2,0,2-1,2.4v0.5h-0.5c0,0.3,0,0.6,0,1
	c0.6-0.3,1.3-0.7,1.9-1v-0.5h0.5c0,1.1,0,2.2,0,3.4c0.2-0.4,0.5-0.6,1-0.5c-0.4-0.2-0.6-0.5-0.5-1h0.5c0-0.8,0.2-1.3,0.5-1.9
	c0.3,0,0.6,0,1,0v0.5h0.5c0.1,0.4,0,0.8-0.5,1h0.5v-0.5h0.5c0,0.3,0,0.6,0,1h0.5v-0.5h0.5c-0.2,0.7,0,1.4,0.5,1.9c-0.3,0-0.6,0-1,0
	v0.5c0.7,0.7,1.5,1,2.4,1l-0.5,1l-1.9-1l-0.5,1c0.6,0.3,1.3,0.6,1.9,1v0.5c-0.8,0.1-1.4-0.2-1.9-1c-0.4,0.2-0.6,0.5-0.5,1h-0.5
	c-0.2,1.1-0.9,1.2-1.9,0.5c0,0.5,0,1,0,1.4h-0.5c-0.2,0.5-0.3,0.9-0.5,1.4h-0.5c0,0.6,0,1.3,0,1.9h-0.5c1.8,1.6,4.1,2.1,6.7,1.4
	c0.7,3.1,0.3,7.6-1,9.6v0.5c-0.3,0-0.6,0-1,0v0.5c-1.3-0.3-2,0.2-1.9,1.4h-0.5c0-0.3,0-0.6,0-1h-0.5v0.5c-1.1,0.4-2.2,0.6-3.4,0.5
	v0.5h-0.5v-0.5h-0.5v0.5h-0.5v-0.5c-3.7,1.3-6.8,3.5-9.1,6.2v-0.5h0.5c0.1-0.4,0-0.8-0.5-1c0.5-0.5,0.7-1.2,0.5-1.9h-0.5
	c-0.8-1.3-0.7-2.7,0.5-3.8h-0.5v0.5h-0.5v0.5h-0.5c0,0.3,0,0.6,0,1c-0.6,0.1-1.1,0-1.4-0.5l-0.5,0.5l0.5,0.5
	c-0.8,0.1-1.4,0.6-1.4,1.4H183v0.5h-0.5v0.5H182v0.5h-0.5c-0.6-0.9-0.7-1.6,0.5-1.9c0-1.1,0-2.2,0-3.4h0.5v-0.5h0.5v-0.5h-0.5
	c0-0.3,0-0.6,0-1H182v-0.5h-0.5c-0.1-0.4,0-0.8,0.5-1h-0.5v0.5H181v0.5h0.5c-0.1,0.4,0,0.8,0.5,1c-0.5,0.8-0.8,1.9-1,2.9h-0.5
	c0.1,1.1-0.4,1.6-1.4,1.4v0.5c-0.6,0-1.3,0-1.9,0c0.4,0.2,0.6,0.5,0.5,1h0.5c0,0.5,0,1,0,1.4h-0.5c0,0.5,0,1,0,1.4h0.5
	c0-0.3,0-0.6,0-1c0.8,0,1.3,0.2,1.9,0.5c0,0.6,0,1.3,0,1.9c0.5-0.5,0.7-1.2,0.5-1.9h0.5v0.5h0.5c0,0.5,0,1,0,1.4h0.5
	c0.2-0.5,0.3-0.9,0.5-1.4h0.5v0.5h0.5c0,1,0,1.9,0,2.9c0.3,0,0.6,0,1,0c-0.2,0.4-0.5,0.6-1,0.5c-0.3,1-1.2,1.2-2.4,1v-0.5
	c-0.3,0-0.6,0-1,0v0.5l-0.5-0.5v0.5c0.3,0,0.6,0,1,0v0.5h0.5c-0.3,0.7-0.7,1.3-1.4,1.4v0.5c-0.3,0-0.6,0-1,0v0.5h-0.5v0.5
	c-0.3,0-0.6,0-1,0c0,0.3,0,0.6,0,1h-0.5c0.2,0.4,0.5,0.6,1,0.5c0-1.3,0.4-1.8,1.4-1v-0.5c0.4,0.1,0.8,0,1-0.5l-0.5-0.5
	c0.4-0.1,0.8,0,1,0.5c0-0.5,0-1,0-1.4h0.5v-0.5c0.5,0,1,0,1.4,0l0.5,1c0.2-0.4,0.5-0.6,1-0.5c0.2-1.2,0.5-2.2,1-3.4c0.3,0,0.6,0,1,0
	c0,0.3,0,0.6,0,1h0.5v0.5c0.5,0,1,0,1.4,0c-0.4,0.9-1.3,1.6-2.4,1.9c-0.1,1.2,0,2.4,0.5,3.4c0.6,0,1.3,0,1.9,0c0,0.7,0.3,1,1,1
	c0,0.3,0,0.6,0,1h0.5v-0.5c0.3,0,0.6,0,1,0v0.5c-0.4-0.1-0.8,0-1,0.5c0.5,0.4,0.6,0.8,0.5,1.4h-0.5v0.5c0.8,0,1.6,0,2.4,0v-0.5
	c2.5,1.3,2.3,3.4,0.5,5.8c0.4,0.2,0.6,0.5,0.5,1h0.5c-0.1,0.7,0.2,1.1,1,1.4c-0.6,0-1.3,0-1.9,0c0.3-1.6,0-2.9-1.4-3.8v-0.5h-0.5
	c0,0.3,0,0.6,0,1h-0.5c0.2,0.5,0.3,0.9,0.5,1.4h-0.5c0,0.3,0,0.6,0,1c0.5-0.1,1,0.1,1.4,0.5c0,0.3,0,0.6,0,1h0.5v0.5
	c-0.7,0-1,0.3-1,1c2.4-0.2,4.1-1.2,4.8-3.4c-1.4,3.5-0.4,6.8,3.4,9.1c-0.4,1.9,0.3,3.5,1.9,4.3c-0.9,2.9-0.9,6.4,0,9.6h-0.5
	c-0.3,1.2,0,2.1,1,2.9h-0.5c0,0.7-0.3,1-1,1c-0.5,0.7-0.6,1.5-0.5,2.4h-0.5c-1.4,2.9-1.9,5.9-1.4,9.1l-0.5,0.5
	c0.4,0.2,0.6,0.5,0.5,1h0.5c0.2,0.5,0.3,0.9,0.5,1.4h-0.5c0,1.6,0,3.2,0,4.8h-0.5c0,0.3,0,0.6,0,1c0.3,0,0.6,0,1,0v0.5h0.5
	c0,1.9,0,3.8,0,5.8h-0.5v0.5h0.5c0,0.3,0,0.6,0,1h-0.5v0.5h-0.5c-0.2,0.5-0.3,0.9-0.5,1.4h-0.5c0.2-1-0.1-1.8-1-2.4
	c-4.3,1.2-5.1,4.3-3.4,8.6h0.5v0.5h0.5l-0.5,0.5c1,0.2,1.2,0.9,1,1.9h0.5c0,0.8-0.2,1.3-0.5,1.9c-0.3,0-0.6,0-1,0v0.5h-0.5v0.5h-0.5
	c-0.3,1.2-0.6,2.2-1,3.4h0.5c0,0.5,0,1,0,1.4h-0.5c0,0.3,0,0.6,0,1c-0.5,0-1,0-1.4,0c0,0.3,0,0.6,0,1h-0.5v0.5
	c-0.5,0.2-0.9,0.3-1.4,0.5v0.5h0.5v0.5c-0.4-0.1-0.8,0-1,0.5c0-0.3,0-0.6,0-1h-0.5c0-0.6-0.4-1.1-1-1.4c-0.2,0.4-0.5,0.6-1,0.5v-0.5
	h-0.5c0-0.3,0-0.6,0-1h-0.5v-0.5c-1.1-0.4-1.8-1.3-1.9-2.4h-0.5c-0.6-1.2-0.6-2.6,0-3.8h0.5v-0.5h-0.5c0-1.3,0-2.6,0-3.8h0.5
	c0-0.3,0-0.6,0-1h-0.5c0-1.3,0.1-2.3,0.5-3.4h0.5c0-0.5,0-1,0-1.4h0.5v-0.5h-0.5c0-0.3,0-0.6,0-1H182c-0.1,1.1-0.2,1.9-0.5,2.9H181
	c0,0.3,0,0.6,0,1h-0.5c0,0.3,0,0.6,0,1h-0.5c0,0.3,0,0.6,0,1h-0.5v0.5h0.5c0,0.6,0,1.3,0,1.9h0.5c0,0.5,0,1,0,1.4h-0.5
	c0,0.6,0,1.3,0,1.9h0.5v0.5h-0.5v0.5c-0.3,0-0.6,0-1,0v0.5h-0.5c0,0.3,0,0.6,0,1c-0.3,0-0.6,0-1,0v0.5h-0.5c0.1,0.4,0,0.8-0.5,1V400
	h-0.5v0.5h-0.5c-0.3,0.6-0.5,1.2-0.5,1.9h-0.5c-0.2,0.5-0.3,0.9-0.5,1.4h-0.5v0.5h-0.5v0.5c-0.9,0.2-1.7,0.7-2.4,1.4v-0.5l-0.5,0.5
	l-0.5-0.5v0.5h-0.5c-0.2,0.5-0.3,0.9-0.5,1.4c0.6,0,1.3,0,1.9,0v-0.5h0.5c0-0.3,0-0.6,0-1h0.5v0.5h0.5v-0.5h0.5c0-0.3,0-0.6,0-1
	c0.8,0,1.6,0,2.4,0c0-0.7,0.3-1,1-1c-0.1-0.4,0-0.8,0.5-1c0.5,0.4,0.6,0.8,0.5,1.4c0.3,0,0.6,0,1,0c-0.1-0.4,0-0.8,0.5-1l-0.5-0.5
	c0.2-0.4,0.5-0.6,1-0.5c0-0.3,0-0.6,0-1h0.5v-0.5h0.5v-0.5h0.5l0.5-1c0.8,0.6,1.2,1.4,1,2.4h0.5v0.5h0.5l-0.5,0.5h0.5v0.5h0.5
	c0,0.5,0,1,0,1.4c1,0,1.9,0,2.9,0v0.5c-0.9,0.5-1.8,0.8-2.9,1v0.5H183v0.5c-2.7,1-4.5,3.4-4.3,6.2l0.5-0.5v0.5h-0.5
	c0.7,5.3,1.2,10.4,1.4,15.4c-1.7,0.3-2.3,1.3-1.9,2.9c-0.8-0.2-1.4,0.1-1.4,1c-1.2,0.6-2.1,1.8-2.4,3.4l0.5,0.5l-0.5,1h0.5v0.5
	c-0.6,0-1.1,0.4-1.4,1l-1-0.5c-0.8,0.6-1.3,1.4-1.4,2.4h-0.5c-0.6,1.9-1.6,3.9-2.9,5.8l1,0.5c-0.3,0-0.6,0-1,0
	c-0.4,0.4-0.6,0.9-0.5,1.4h-0.5c-1.7,3.1-2.8,6.2-3.4,9.6h0.5c0,0.5,0,1,0,1.4h0.5v0.5h0.5c0,0.3,0,0.6,0,1h0.5c0,0.8,0,1.6,0,2.4
	c-0.9,0.1-1.7-0.1-2.4-0.5v-0.5c-0.6,0-1.3,0-1.9,0c0-0.3,0-0.6,0-1h-0.5c-0.6-1.1-1.4-2.3-2.4-3.4c-0.8-0.3-1.3-1-1.4-1.9h-0.5
	c0-0.7-0.3-1-1-1v-0.5c-2.5-1.4-4.9-2-7.7-1.9c-0.1-1.4,0.6-2.6,1.9-3.4c-0.9-0.6-1.2-1.4-1-2.4c0.6,0,1.3,0,1.9,0V447h0.5
	c0,0.3,0,0.6,0,1h0.5v0.5h0.5l-0.5-0.5c0.5,0,1,0,1.4,0c0,0.3,0,0.6,0,1h0.5v-0.5c0.3,0,0.6,0,1,0v1c0.5,0,1,0,1.4,0
	c0-0.5,0-1,0-1.4h0.5c0-0.3,0-0.6,0-1h-0.5v-0.5h0.5c0.2-0.5,0.3-0.9,0.5-1.4h0.5v-0.5h0.5c0-0.5,0-1,0-1.4h0.5v-0.5h0.5v-0.5h0.5
	c0.2-0.5,0.3-0.9,0.5-1.4h0.5c0-0.6,0-1.3,0-1.9h-0.5c0-1.4-0.7-1.8-1.9-1v-0.5H157c0-0.5,0-1,0-1.4h0.5c0,0.3,0,0.6,0,1
	c0.6-0.4,0.8-0.6,1.4-1c-0.3,0-0.6,0-1,0v-0.5h-0.5c-0.1-0.4,0-0.8,0.5-1h-0.5c0.4-0.7,0.6-1.5,0.5-2.4h0.5c0.2-1,0.7-1.2,1.4-0.5
	v-0.5h-0.5c0-0.5,0-1,0-1.4h0.5c0-0.3,0-0.6,0-1h-0.5v-0.5c-0.3,0.6-0.8,0.9-1.4,1c0,0.3,0,0.6,0,1c-0.5,0-1,0-1.4,0v0.5
	c-0.9,0-1.1-0.6-1-1.4h0.5c-0.2-1-0.9-1.6-1.9-1.4v-0.5h0.5v-0.5c0.3,0,0.6,0,1,0c0-0.5,0-1,0-1.4h-0.5c0-0.3,0-0.6,0-1h-0.5
	c0,0.3,0,0.6,0,1c-0.8-0.1-1.4-0.6-1.4-1.4c0.4-0.1,0.8,0,1,0.5V424h0.5c0.1-0.4,0-0.8-0.5-1c0.3,0,0.6,0,1,0v0.5h0.5
	c0,0.3,0,0.6,0,1c0.4-0.2,0.6-0.5,0.5-1c0.3,0,0.6,0,1,0v0.5h0.5v-0.5H157V423h-0.5c0-0.8,0.2-1.3,0.5-1.9h0.5v0.5h0.5
	c0.2,1.1,0,2.1-0.5,2.9h0.5v0.5h-0.5c0.5,0.6,0.8,1.2,1,1.9h0.5c-0.3-1-0.4-1.8-0.5-2.9h0.5c0-0.6,0-1.3,0-1.9h-0.5v-0.5H158
	c0.3-0.6,0.5-1.2,0.5-1.9h0.5v-0.5c-1-0.6-1.3-1.9-1-3.4l0.5,0.5c0-0.6,0-1.3,0-1.9c-0.7,0.8-1.5,1.2-2.4,1.4c0,0.5,0,1,0,1.4h-0.5
	c0-0.6,0-1.3,0-1.9h-0.5c0,0.8,0,1.6,0,2.4h0.5v0.5h0.5c-0.2,0.5-0.3,0.9-0.5,1.4h0.5v0.5c-0.3,0-0.6,0-1,0c0,0.3,0,0.6,0,1h0.5
	c0,0.3,0,0.6,0,1c-0.3,0-0.6,0-1,0c0.1-1.2-0.5-2.1-1.4-2.4v-0.5l-0.5,0.5v-0.5h-0.5v0.5h0.5c-0.2,0.4-0.5,0.6-1,0.5v-0.5h-0.5
	c0,0.3,0,0.6,0,1c-0.6-0.3-1.2-0.5-1.9-0.5c0-0.9-0.6-1.1-1.4-1v0.5c0.5,0.2,0.9,0.3,1.4,0.5v0.5h0.5c-0.2,0.5-0.3,0.9-0.5,1.4
	c0.5,0,1,0,1.4,0c0.3,1,0,1.7-1,1.9c0.2,0.4,0.5,0.6,1,0.5v0.5h-0.5v0.5h-0.5v-0.5c-0.6,0.1-1.1,0-1.4-0.5c-0.4,0.2-0.6,0.5-0.5,1
	h0.5c0,0.5,0,1,0,1.4c1.1-0.1,2,0,2.9,0.5l-0.5,0.5h0.5v0.5c-1.3,0.2-1.8,1.1-1.9,2.4c-0.4-0.2-0.6-0.5-0.5-1
	c-0.8,0.6-1.2,1.4-1,2.4h0.5c-0.6,1.4-0.9,2.7-1,4.3H147l0.5,0.5c-0.4,0.2-0.6,0.5-0.5,1l-0.5-0.5c-0.5,1.5-0.7,3.5-0.5,5.3l0.5-0.5
	v0.5H146c0,0.3,0,0.6,0,1h-0.5c0,0.5,0,1,0,1.4H145v0.5c-0.8,0-1.6,0-2.4,0v-0.5h-0.5v0.5c-0.3,0-0.6,0-1,0c0,0.3,0,0.6,0,1
	c0.3,0,0.6,0,1,0v0.5c0.5,0,1,0,1.4,0c-0.2,0.5-0.3,0.9-0.5,1.4h-0.5c-0.1,0.4,0,0.8,0.5,1c-0.3,0-0.6,0-1,0c0.4,0.2,0.6,0.5,0.5,1
	h0.5v-0.5c0.4,0.2,0.6,0.5,0.5,1h0.5v-0.5h-0.5v-0.5h0.5v-0.5h0.5c0.1-0.6,0-1.1-0.5-1.4l0.5-0.5h-0.5c0-0.3,0-0.6,0-1h-0.5v-0.5
	c0.4,0.1,0.8,0,1-0.5v0.5h0.5c0,0.6,0,1.3,0,1.9h0.5c0,0.5,0,1,0,1.4h0.5c0,0.3,0,0.6,0,1h0.5c0,0.5,0,1,0,1.4h0.5
	c0.3,1,0,1.7-1,1.9c0-0.9-0.6-1.1-1.4-1v-0.5c-2.4,0-4.8,0-7.2,0v0.5c-0.3,0-0.6,0-1,0v0.5c-0.3,0-0.6,0-1,0v0.5H135
	c-15.6,2.5-39.4,4.4-54.2,13v0.5h-0.5v0.5l-0.5-1v0.5h-1.4v0.5c-10.5,2.4-20.9,6.7-30.7,11c-1.9,2.9-4.6,4.7-8.2,5.3v0.5
	c-0.3,0-0.6,0-1,0v0.5c-0.5,0-1,0-1.4,0c-0.1-0.4,0-0.8,0.5-1c-1.8-1.4-2.9-2.9-3.4-4.8h0.5c0-0.3,0-0.6,0-1c0.6,0,1.3,0,1.9,0
	c-0.2,0.6-0.1,1.1,0.5,1.4h-0.5c0-0.7-0.3-1-1-1v0.5h0.5v1c0.6-0.2,1.3-0.3,1.9-0.5c-0.4,0.2-0.6,0.5-0.5,1h-0.5v0.5
	c1.3,0.1,1.7-0.7,1.4-1.9H38c0.4-0.2,0.6-0.5,0.5-1c0.3,0,0.6,0,1,0v0.5h0.5v1h-0.5c0,0.3,0,0.6,0,1h0.5c-0.3-2.7,0.4-5.6,1.9-8.2
	h0.5c0.1-0.4,0-0.8-0.5-1l0.5-0.5h-0.5c0-0.3,0-0.6,0-1c-1.2-0.2-2.3,0-3.4,0.5v0.5H38c0,0.3,0,0.6,0,1h-0.5v-0.5
	c-1.2,0-2.2,0.7-2.9,1.9c-0.4-0.2-0.6-0.5-0.5-1h-0.5c0.3,1.7-0.3,2.6-1.9,2.9v-0.5h-0.5v-0.5c-0.2,0.9-0.6,1.6-1.4,1.9
	c0.2,2.6-0.8,4.5-2.9,5.3c0.2-0.9,0-1.7-0.5-2.4l-0.5,0.5v-0.5c-0.6,0.3-0.9,0.8-1,1.4c-0.7,0-1,0.3-1,1l-1,0.5c0,0.3,0,0.6,0,1
	h-0.5c0-0.3,0-0.6,0-1h-0.5v-0.5c-0.3,0-0.6,0-1,0v0.5l-0.5-0.5c0.4-0.2,0.6-0.5,0.5-1c-0.6,0-1.3,0-1.9,0c0.6,1.4,0.7,3.1,0.5,4.8
	h-0.5c-0.1,0.6,0,1.1,0.5,1.4c0.6-0.3,0.9-0.8,1-1.4c0.3,0,0.6,0,1,0v-0.5c0.4,0.1,0.8,0,1-0.5v0.5c0.7-0.4,1.4-0.6,2.4-0.5l0.5-1
	c0.6-0.1,1.1,0,1.4,0.5l0.5-0.5v0.5c0.5-0.2,0.9-0.3,1.4-0.5V483h0.5v-0.5h-0.5l-0.5,1c0-0.5,0-1,0-1.4c0.7-0.2,1.4,0,1.9,0.5h-0.5
	c0,0.3,0,0.6,0,1h1V483h1v-1c0.5,0,1,0,1.4,0l-0.5-0.5c0.6-0.4,0.8-0.6,1.4-1c0.9,1,1.8,2.1,2.4,3.4h0.5v0.5
	c-6.6-1-13.1,0.9-18.7,4.3v-0.5c-1.8-0.5-3.5-1.2-5.3-1.9c0-0.8-0.2-1.6-0.5-2.4h-0.5c-0.2-1.5-1.1-2.8-2.4-3.4c0,0.3,0,0.6,0,1H9.2
	v-0.5H8.7c0,0.3,0,0.6,0,1c-0.6-0.1-1.1,0-1.4,0.5v-0.5H6.8v0.5c-0.7,0-1-0.3-1-1H5.4v0.5H4.9c-0.4-0.9-0.5-1.8-0.5-2.9
	c-0.3,0.7-0.6,1.2-1,1.9v-0.5c-0.7,0.5-1.5,0.9-2.4,1c0.3-1.2,0.1-2.1-1-2.4v0.5h0.5v0.5c-0.3,0-0.6,0-1,0l0.5,1
	c-0.2,0.6-0.5,1.1-1,1.4c0.2,0.4,0.5,0.6,1,0.5v-0.5h0.5c0,0.3,0,0.6,0,1c-1.8,0.2-3.2,0.2-5.3,0v0.5h-0.5v0.5c-0.4,0.1-0.8,0-1-0.5
	c-0.5,0.4-0.6,0.8-0.5,1.4c-0.3,0-0.6,0-1,0v-1c-0.7-0.1-1.3,0.1-1.9,0.5v0.5c-1.8,0.7-2.8,2.6-2.9,4.8c1.9-0.9,4.3-2,6.2-2.9v0.5
	c1.5,0,3.6-0.1,5.3-0.5v-0.5c-0.3,0-0.6,0-1,0c0.7-0.8,1.5-1.3,2.4-1.4v0.5c0.9-0.2,1.6-0.6,1.9-1.4c1.6-0.3,2.6-0.4,4.3-0.5
	c0,0.3,0,0.6,0,1c0.5,0.1,1-0.1,1.4-0.5v0.5c0.9,0,1.1-0.6,1-1.4h0.5L9.2,483v0.5c-0.4-0.1-0.8,0-1,0.5c-0.2-0.4-0.5-0.6-1-0.5V483
	c0.9-0.1,1.5-0.3,2.4-0.5c0-0.7,0.3-1,1-1c1.3,1.4,2,3,1.9,4.8c-9,0.6-17.4,3.8-26.4,5.3v0.5c-9,1.8-18.8,5.1-24.5,12h-0.5
	c0.9-2,0.7-3.5-1.4-4.3v-0.5h-1v-0.5c-3.6-0.1-6.8,0.8-9.6,2.4v0.5c-0.9,0.4-1.8,0.6-2.9,0.5c0.6-1.1,0.9-1.8,1.4-2.9h0.5
	c1.2,1.6,3.1,0.9,5.3-0.5v-0.5c2.2-0.1,4.3-0.3,6.2-0.5c0.3,1.7,1,1.9,1.9,0.5h0.5c-0.5-0.6-1-1.2-1.4-1.9h0.5c0-0.3,0-0.6,0-1
	c0.3,0,0.6,0,1,0c0,0.7,0.3,1,1,1c0-0.3,0-0.6,0-1h-0.5l0.5-1c-0.3,0-0.6,0-1,0v0.5h-0.5v-0.5c-0.3,0-0.6,0-1,0v-0.5
	c0.3,0,0.6,0,1,0v-0.5c0.6-0.5,1.2-1,1.9-1.4v0.5c0.5,0.2,0.9,0.3,1.4,0.5v-0.5c0.3,0,0.6,0,1,0l-0.5-0.5l0.5-0.5c-0.3,0-0.6,0-1,0
	c0.4-0.2,0.6-0.5,0.5-1c1.4-0.9,3.1-1.4,4.8-1.4c0-0.3,0-0.6,0-1h0.5c0-0.5,0-1,0-1.4c-1.1,0.4-2.2,0.7-3.4,1c0-0.8,0.2-1.3,0.5-1.9
	c0.3,0,0.6,0,1,0c0-0.3,0-0.6,0-1c2.3-0.9,4.2-2.4,5.3-4.3h0.5v0.5c0.4,0.1,0.8,0,1-0.5c0,0.5,0,1,0,1.4h0.5c-0.1-0.4,0-0.8,0.5-1
	v0.5h0.5c0-0.5,0-1,0-1.4h-0.5c0-0.8,0.5-1.2,1.4-1c0,0.6,0,1.3,0,1.9h0.5v-0.5h0.5v-0.5h-0.5v-0.5h0.5v-0.5h-0.5
	c-0.2-0.5-0.3-0.9-0.5-1.4h0.5c-0.1-1,0.4-1.7,1.4-1.9c-1.3-0.2-2.2-1.1-2.4-2.4h0.5c0-0.5,0-1,0-1.4h0.5c0-0.7-0.3-1-1-1
	c0-0.3,0-0.6,0-1h-0.5l-0.5-1l0.5-0.5l-0.5-0.5v0.5c-0.5-0.5-1.2-0.7-1.9-0.5c-1.6-6.3-0.3-11.8,1.4-17.8h0.5
	c-1.2-2.4-2.1-5.4-2.4-8.2c-2-0.1-3.1-1.5-3.4-3.4h-0.5c0.4-2.3,0.5-4.6,0-6.7h-0.5c0-1.1,0-2.2,0-3.4h0.5c0-0.5,0-1,0-1.4h0.5v-0.5
	c3.8,0.3,7.4-1.3,9.6-4.3c3.1-2.1,6.3-1.8,9.1,1V423c1.2-0.3,2,0,2.4,1c0.9,0.1,1.7,0,2.4-0.5c1.9-38.9,5.5-79.4,4.3-118.6h0.5
	C-2.4,223-2,141.1-4.2,59.2c-0.5-19.3-0.9-39.5-1-59c73.3-9,149.8-4.9,223.2-7.7c0,30.1,0,60.2,0,90.2c7.9-1.7,15.1-2.9,23-3.8
	C240.6,80.3,240.4,81.7,240.6,83.2z M183,375h-0.5c0,0.8,0.2,1.3,0.5,1.9h-0.5l0.5,0.5h-0.5c0,0.5,0,1,0,1.4h0.5c0-0.3,0-0.6,0-1
	c0.3,0,0.6,0,1,0v-0.5c-0.3,0-0.6,0-1,0v-0.5h0.5C182.9,376.4,182.8,375.8,183,375z M177.7,318.9l-0.5,0.5h0.5V318.9z"/>
<path id="path23_1_" class="st0" d="M223.9,357c-0.4,0.5-0.8,0.6-1.4,0.5v0.5H222c0,0.3,0,0.6,0,1h-0.5v0.5h0.5V359h0.5v-0.5h0.5
	V358h0.5v-0.5h0.5V357z M223.4,311.4V311h0.5v0.5c0.5,0,1,0,1.4,0v0.5c0.5,0,1,0,1.4,0v0.5h0.5v0.5h0.5v0.5h0.5c0,1.3,0,2.6,0,3.8
	h0.5c0,0.5,0,1,0,1.4h0.5c0.3,1.8,0.4,3.3,0.5,5.3h0.5c0.6,3.9-0.4,7.5-2.9,10.6h0.5c-0.3,2.2,0.3,5,1.4,7.2h-0.5
	c0.5,0.8,0.7,1.8,0.5,2.9h0.5v0.5h-0.5c0,0.8,0,1.6,0,2.4h-0.5c0,0.8,0,1.6,0,2.4h-0.5c-0.3,1-0.6,1.9-1,2.9h-0.5
	c0.4,0.2,0.6,0.5,0.5,1h-0.5c0.2,1.1,0.5,2,1,2.9c0.9,0.2,1.8,0.1,2.4-0.5c1,0.9,1.3,2,1,3.4h-0.5c0.1,1.1-0.2,2-1,2.9
	c-0.5,0.2-0.9,0.3-1.4,0.5v0.5h-0.5c-0.2,0.5-0.3,0.9-0.5,1.4h-0.5c0,0.5,0,1,0,1.4h-0.5c0.4,0.2,0.6,0.5,0.5,1h-0.5
	c0,0.3,0,0.6,0,1h0.5c0.2,1.1,0.5,2,1,2.9h0.5c0,0.3,0,0.6,0,1h0.5c0,0.3,0,0.6,0,1h0.5v0.5h0.5v0.5h0.5c-0.4,0.2-0.6,0.5-0.5,1h0.5
	c0,0.3,0,0.6,0,1h-0.5v0.5h0.5v0.5h0.5v0.5c0.5,0,1,0,1.4,0v0.5c0.3,0,0.6,0,1,0c0,0.3,0,0.6,0,1h-0.5v0.5c-0.3,0-0.6,0-1,0v-0.5
	h-0.5v0.5h0.5c0,0.3,0,0.6,0,1h-0.5v0.5c-0.3,0-0.6,0-1,0c0-0.3,0-0.6,0-1h-0.5c0.1,0.4,0,0.8-0.5,1v-0.5h-0.5v-0.5h0.5v-0.5h-0.5
	c-0.2,0.5-0.3,0.9-0.5,1.4c-0.6-0.1-1.1,0-1.4,0.5v-0.5c-0.3,0-0.6,0-1,0v-0.5c-0.5,0-1,0-1.4,0v-0.5c-0.2,0.4-0.5,0.6-1,0.5
	c0,0.8,0,1.6,0,2.4c-0.9,0.2-1.7,0-2.4-0.5h0.5c0-0.3,0-0.6,0-1H221c0-0.6,0-1.3,0-1.9c-0.4,0.1-0.8,0-1-0.5h0.5v-0.5h-0.5v-0.5h0.5
	c-0.3-2-1.2-4-2.4-5.3c0.4-0.9,0.6-1.8,0.5-2.9h-0.5V369c-0.4,0.5-0.8,0.6-1.4,0.5c-0.1-0.6,0-1.1,0.5-1.4h-0.5c0-0.3,0-0.6,0-1
	h-0.5v-0.5h0.5c0.2-1.8,0.6-3.3,1.4-4.8c0.9-0.2,1.7-1,1.9-1.9h-0.5v-0.5c-0.7,0-1-0.3-1-1h-0.5V358h-0.5c-5-4.3-6.1-10.7-3.8-16.8
	h0.5l-0.5-0.5h0.5c0.2-0.9,0.3-1.5,0.5-2.4h0.5c0.3-0.6,0.5-1.2,0.5-1.9h0.5c-0.4-3.7-0.4-7.6,0-11.5h0.5c-0.4-1.6-0.1-2.7,1.4-2.9
	v-0.5h0.5c-0.1-1.6,0.1-3,0.5-4.3h0.5c0-0.5,0-1,0-1.4h0.5c0.2-0.5,0.3-0.9,0.5-1.4h0.5c0-0.3,0-0.6,0-1h0.5v-0.5h0.5v-0.5h0.5
	C222.4,311.7,222.8,311.4,223.4,311.4z M223.9,358h-0.5v0.5L223.9,358z"/>
<path id="path27_1_" class="st0" d="M303.4,255.7h-0.5c-0.2-0.8,0.1-1.4,1-1.4c0-0.3,0-0.6,0-1h0.5v-0.5h0.5c0-0.3,0-0.6,0-1
	c0.3,0,0.6,0,1,0v0.5h-0.5c-0.6,1.6-0.6,3.3,0,4.8c0.3,0,0.6,0,1,0c-0.1,0.4,0,0.8,0.5,1h-0.5c-0.3,2.4,0.4,4.3,2.4,4.8v0.5
	c-0.5,0-1,0-1.4,0v0.5h-0.5v0.5c-0.4-0.1-0.8,0-1,0.5h0.5c0,1.4,0,2.9,0,4.3c-0.3,0-0.6,0-1,0c0-0.6,0-1.3,0-1.9h-0.5
	c-0.3-1.2-0.6-2.2-1-3.4c-0.6,0.3-1.2,0.5-1.9,0.5l0.5-0.5c-1.2-0.2-2.1,0.3-2.4,1.4h0.5v-0.5h0.5c-0.1,0.8-0.6,1.4-1.4,1.4
	c0,0.3,0,0.6,0,1h-0.5c0,0.3,0,0.6,0,1c-0.6-0.2-1.1-0.1-1.4,0.5v-0.5l-0.5,0.5l0.5,0.5h-0.5c0,0.3,0,0.6,0,1l-0.5-0.5v0.5
	c0.3,0,0.6,0,1,0v-0.5c0.5-0.2,0.9-0.3,1.4-0.5c0,0.3,0,0.6,0,1c-0.5,0-1,0-1.4,0v0.5c0.3,0,0.6,0,1,0v0.5c-0.4-0.1-0.8,0-1,0.5
	c0.6,0.3,1.2,0.5,1.9,0.5c0.1-0.4,0-0.8-0.5-1h0.5v-0.5h0.5v-0.5c0.3,0,0.6,0,1,0v0.5h-0.5c0,0.5,0,1,0,1.4h0.5c0,0.5,0,1,0,1.4h0.5
	v-0.5c0.3,0,0.6,0,1,0v0.5c0.5,0,1,0,1.4,0c0-0.5,0-1,0-1.4h0.5v-0.5h0.5c-0.2-0.8,0.1-1.4,1-1.4c0.2,0.5,0.3,0.9,0.5,1.4
	c-0.3,0-0.6,0-1,0c0,0.6,0,1.3,0,1.9h-0.5v0.5h-0.5v0.5c-0.6,0-1.3,0-1.9,0v0.5c-2.8,0-5.3,0.5-7.7,1.4v0.5h-0.5c0,1.6,0,3.2,0,4.8
	h-0.5c0.2,1.3,0.3,2.1,0.5,3.4h-0.5c0.2,0.5,0.3,0.9,0.5,1.4h-0.5c0,0.5,0,1,0,1.4h-0.5c0.2,2,0,4.1-0.5,5.8h0.5v0.5h-0.5
	c-0.3,3,0,6.1,1,8.6h0.5c2.8,5.1,3.1,11.9,1.4,17.8h0.5c0,0.3,0,0.6,0,1h-0.5v0.5h0.5c-0.1,0.9,0.1,1.7,0.5,2.4c0.3,0,0.6,0,1,0v0.5
	h0.5c0,0.5,0,1,0,1.4h-0.5c0,0.5,0,1,0,1.4h-0.5c0,3.4-0.1,6.4-0.5,9.6h0.5c-0.3,1,0,1.7,1,1.9v0.5h0.5v0.5h0.5v0.5
	c0.6,0,1.3,0,1.9,0v0.5h-0.5c0,0.7,0.3,1,1,1v0.5H301c0,0.5,0,1,0,1.4h-0.5c0.5,0.5,0.7,1.2,0.5,1.9h-0.5c0,0.5,0,1,0,1.4H300
	c0,0.5,0,1,0,1.4l-0.5-0.5c0,0.5,0,1,0,1.4h-0.5c-0.4,1.2-0.5,2-0.5,3.4l-0.5-0.5c-0.7,1.7-1.4,3.2-2.4,4.8h-0.5
	c-0.7,0.7-0.7,1.4,0,1.9c-4.7,6.2-6,11.5,1.4,13c-0.1,2.9-0.9,5.8-2.4,8.2V380c-1.1,1.1-2.4,2.1-3.8,2.4c0.4-2.3,0.9-4.5,1.4-6.7
	c-3.1-3.2-7-5.1-11.5-5.3c-0.2,1.9-0.9,3.7-1.9,5.3l-0.5-0.5l-1,1.4h-0.5v0.5h-1.4c0-1.3-0.4-2.4-1.4-2.9c0-0.3,0-0.6,0-1h-0.5
	c-2.5-3.6-5.7-3.3-9.1,0c0.9,2.5,0.7,5.3-0.5,7.7l0.5,0.5l-0.5,1c1.5,1.8,1.1,3.2-1.4,3.8c-1,1.3-1.5,2.8-1.4,4.3l1,0.5
	c-0.8,1.8-1.5,3.5-2.4,5.3v-0.5l-1,1.4l-0.5-0.5l-1.4,1v-0.5h-0.5l0.5-2.9l-1.9-1v1c-0.4,0.4-0.9,0.6-1.4,0.5
	c-0.2-0.8-0.8-1.7-1.4-2.4l0.5-1c-1.5-0.4-2.8-0.1-3.8,1c0.1,1-0.4,1.8-1.4,2.4h-0.5l-0.5,1.9l-1-0.5v-1.4c-0.5,0.3-0.7,0.8-0.5,1.4
	c-0.4-0.4-0.6-0.9-0.5-1.4h-0.5l-0.5-1l-0.5,0.5l-0.5-0.5l-1.4,0.5l1,0.5v0.5l0.5-0.5c0.6,0.2,1.1,0.5,1.4,1l-0.5,0.5l0.5,0.5
	l-0.5,0.5c0.2,0.4,0.5,0.6,1,0.5v1c-0.6-0.2-1.1-0.1-1.4,0.5l-0.5-1l0.5-1l-1.4-1v-0.5l-0.5,0.5v-0.5l-1,0.5v-1.4l-0.5,1.4
	c-1.8,0.1-3.5,0.8-4.8,1.9v0.5l-1,0.5c-1.5-2.2-2.4-4.9-2.4-7.7l-1-0.5l-0.5,0.5V391H229c0-1.4,0.3-2.7,1-3.8v0.5h0.5
	c0,0.5,0,1,0,1.4h0.5c0.2-0.9,0.3-1.5,0.5-2.4h0.5v-0.5h0.5v-0.5h0.5v-0.5c0.7,0,1-0.3,1-1h0.5v-0.5c1.1-0.1,1.9-0.2,2.9-0.5
	c0.2-0.5,0.3-0.9,0.5-1.4h0.5v-0.5h0.5v-0.5h0.5c0-0.7,0.3-1,1-1c0.1-1,0.6-1.7,1.4-1.9c0.4-0.7,0.6-1.5,0.5-2.4c0.3,0,0.6,0,1,0
	l-0.5,0.5h0.5c0,0.7,0.3,1,1,1c0,1,0,1.9,0,2.9l-1,0.5c-0.2,1.5-0.3,2.6-0.5,3.8l0.5,0.5c0.5-0.9,1.1-1.6,1.9-1.9v0.5l2.4-1.9v-0.5
	c1.4-0.1,2.4-1,2.9-2.4v1c1.2-0.6,2.5-0.9,3.8-1c-0.5-0.6-0.6-1.3,0-1.9h-0.5c0.4-0.2,0.6-0.5,0.5-1h-1l1-0.5c0-0.3,0-0.6,0-1h-0.5
	c-0.1-0.4,0-0.8,0.5-1c-0.3,0-0.6,0-1,0v-0.5c0.4,0.1,0.8,0,1-0.5h-1v-0.5h0.5c0.1-0.7-0.1-1.3-0.5-1.9c-0.4,0.2-0.6,0.5-0.5,1H252
	v-0.5l-0.5,0.5v-0.5h-1v-0.5h0.5v-0.5h-0.5v0.5c-0.4-0.4-0.6-0.9-0.5-1.4h0.5V368h0.5c-0.2-2.1-0.3-3.7-0.5-5.8h-0.5l0.5-0.5
	l-0.5-3.4c-0.4,0.1-0.8,0-1-0.5c0.2-0.4,0.5-0.6,1-0.5c-0.3-1.1,0-1.9,1-2.4c-0.8-0.3-1.1-0.8-1-1.4h0.5c0-0.5,0-1,0-1.4h-0.5
	l0.5-0.5c-0.4-0.4-0.6-0.9-0.5-1.4c-0.3,0-0.6,0-1,0v-0.5c-0.5,0-1,0-1.4,0v-0.5c-0.5,0-1,0-1.4,0v0.5h-0.5v-0.5
	c1.2-0.7,2.7-1.9,3.8-2.9l5.8,1.4l0.5-0.5l-0.5-0.5c0.3,0,0.6,0,1,0v-0.5h-0.5c0.1-1.2,0-2.4-0.5-3.4l-1-0.5l1.4-0.5l-0.5-1.4
	c-1,0.1-1.9,0.2-2.9,0.5v-0.5l2.4-0.5v-0.5h0.5c0-1.1,0-2.2,0-3.4l0.5,0.5c0.4-0.2,0.6-0.5,0.5-1h0.5c1-1.2,1.5-2.6,1.4-4.3h-0.5
	V331c-0.2-3.8,1.4-9.3,3.8-13.4h0.5c1.4-2.1,2.5-4.1,3.4-6.2c4.7-1.5,6.2-4.7,3.8-8.6c-0.2-1.8,0-3.7,0.5-5.3
	c0.5,0.4,0.6,0.8,0.5,1.4c0.9,0,1.1-0.6,1-1.4h0.5c-0.3-1.1-1-1.1-1.9-0.5c0-0.3,0-0.6,0-1c1.2,0.1,2.4,0,3.4-0.5
	c0.3-1.8,0.6-3.1,1-4.8h0.5c1-2.4,2-4.9,2.9-7.2c-0.7-0.8-0.7-1.9,0-2.9c-0.4-0.2-0.6-0.5-0.5-1h-0.5c0.1-0.4,0-0.8-0.5-1l0.5-0.5
	H276c0.2-0.6,0.1-1.1-0.5-1.4c0.4-0.2,0.6-0.5,0.5-1h0.5c0.6-2,2.1-3,4.3-2.9v0.5h-0.5c0.3,0.7,0.6,1.2,1,1.9
	c0.6-0.8,0.3-1.7-0.5-2.4c0.2-0.4,0.5-0.6,1-0.5V272h0.5v-0.5h0.5c0.7-1.1,1-2.4,1-3.8h0.5c0.2-0.6,0.5-1.3,1-1.9h1v-0.5
	c0.5-0.2,0.9-0.3,1.4-0.5v-0.5h-0.5v-0.5c1.7-1.1,3.5-1.3,4.8,0c0.5,0,1,0,1.4,0c-0.2,0.4-0.5,0.6-1,0.5v0.5c-0.3,0-0.6,0-1,0
	c0.2,0.5,0.3,0.9,0.5,1.4h-0.5c0,1.3,0.1,2.3,0.5,3.4h0.5c0-1.3,0.1-2.3,0.5-3.4h0.5v-0.5c0.7,0,1-0.3,1-1c-0.4,0.1-0.8,0-1-0.5h0.5
	c0.1-0.4,0-0.8-0.5-1c2.2,0.4,3.9-0.2,4.8-1.9h0.5c0-0.6,0-1.3,0-1.9c1.2-0.3,2.3-0.8,3.4-1.4c0.2-0.5,0.3-0.9,0.5-1.4h0.5v-0.5h0.5
	V255.7z"/>
<path id="path51_1_" class="st0" d="M271.7,177.6c14.7,5.5,22.2,23.8,30.2,36c-0.3,2.1-1.5,3.7-3.4,4.3c-0.8,2.2-2.8,3.9-5.3,4.8
	l-1-0.5h0.5l-0.5-1c0.9-1.3,0.8-2.4-0.5-2.9l1-0.5c1.1,0.2,1.9,0.6,2.4,1.4h0.5c0-0.5,0-1,0-1.4c-0.8,0-1.6,0-2.4,0l-0.5-1
	c0.7-2.4,0.5-5.1-0.5-7.7l-0.5,1c-1.4-0.6-2.7-1.4-3.8-2.4c0-0.6,0-1.3,0-1.9c-0.7,0.4-0.8,1.1-0.5,1.9l-1.4,0.5
	c-0.6-1.5-1.3-3.2-1.9-4.8l0.5-1c-0.4,1.2-1.2,1.8-2.4,1.9l-0.5-1.9c0.5-0.4,0.8-0.9,1-1.4l-1,0.5l0.5-1.4c-1.8-2.7-1.3-5.2,1.4-7.2
	v-1.4h0.5l-1-1l-0.5,0.5l0.5,1.4c-2.7,2.9-3.3,6-2.4,9.6l0.5,0.5l-0.5,1.4c0.9,0.6,1.4,1.4,1.4,2.4h0.5c0.2,0.6,0.5,1.1,1,1.4
	c-0.3,2.1,0.4,4.1,1.9,5.8l1,0.5c0.6,1.6,1.7,3.2,2.9,4.3c-0.3,1.5,0.3,2.2,1.9,1.9c-0.1,0.9-0.4,1.8-1,2.4l0.5,0.5l0.5-1
	c1.8,7.6,8.1,16.7,2.4,23c-0.2-0.8-0.6-1.3-1.4-1.4c-5.7,4.1-7.2,10.7-8.2,17.8h-0.5v0.5c-1.6,0.1-3.1-0.4-4.3-1.4
	c-1.4-3.7-1.5-7-0.5-10.6l-1-0.5l0.5-0.5c-0.7,0.1-1.3-0.1-1.9-0.5c0-0.7-0.3-1-1-1l0.5-0.5c-0.5-0.4-0.8-0.9-1-1.4
	c-0.5-0.2-0.9-0.3-1.4-0.5v-0.5h0.5c-0.3-0.3-0.6-0.6-1-1l0.5-0.5h-0.5c0.1-0.4,0-0.8-0.5-1h0.5V242h-0.5c0-0.3,0-0.6,0-1h-0.5
	c0.7-1.7,0.7-3.7,0-5.3l-0.5,0.5c-0.5-1.1-1.4-2-2.4-2.4l-0.5,1.4h-1v2.4h0.5c0.2,2.1,0.1,4.2-0.5,6.2h0.5c-0.5,2.2-1.4,4.1-2.9,5.8
	l-1-1.4c-1.4,2.6-2.2,5.8-2.4,9.1c-3.9-7-4.3-15.5-1.9-23.5c3,0.4,5-1.8,5.8-5.3l-0.5-1c1.1-5.1,1.4-10,1-15.4
	c5.3-5.4,1.9-12.5,2.4-19.7c2,1.7,3.7,3.5,5.3,5.8l1-1c-1-1-1.9-1.9-2.9-2.9l0.5-1.4l-1-1.4l1.4-1.9l-1.4-0.5
	c-0.6-1.3-0.4-2.2,0.5-2.9l-0.5-1l0.5-1h-1.4c0.6-1.1,0.7-2.5,0.5-3.8h-0.5l0.5-1l0.5,0.5c-0.8-1-1.2-2.1-1.4-3.4
	C270.9,177.1,271.1,177.2,271.7,177.6z"/>
<path id="path37_1_" class="st0" d="M344.3,375.6c-0.3,0-0.6,0-1,0c0.2,0.4,0.5,0.6,1,0.5V375.6z M312.6,304.1c-0.7,0-1,0.3-1,1
	h-0.5v0.5h0.5v0.5h0.5c0,0.3,0,0.6,0,1h0.5v-0.5c0.8,0,1.6,0,2.4,0V306c-0.8,0-1.6,0-2.4,0v-0.5h-0.5v-0.5h-0.5
	c0.2-0.4,0.5-0.6,1-0.5V304.1z M313.6,295h-0.5v0.5L313.6,295z M315.5,307H315c0,0.3,0,0.6,0,1h0.5
	C315.5,307.6,315.5,307.3,315.5,307z M316.9,238.3v-0.5c3.4,0.9,6.9,1.9,10.6,2.9c0,0.8,0,1.6,0,2.4c7.8,1.5,15.4,3.4,23,5.3
	c0,0.3,0,0.6,0,1h0.5c-1.7,19.5-3.3,29.2,0.5,47.5c4.4,21.1,5.2,44.8,6.2,66.2h-0.5c0-0.3,0-0.6,0-1h-0.5c0-0.3,0-0.6,0-1h-0.5
	c0-0.5,0-1,0-1.4h-0.5c0-0.3,0-0.6,0-1h-0.5c0-0.8,0-1.6,0-2.4h-0.5c0-0.3,0-0.6,0-1h-0.5v0.5c-0.2-0.4-0.5-0.6-1-0.5V355h0.5
	c0-0.6,0-1.3,0-1.9h-0.5c0,0.5,0,1,0,1.4c-0.5-0.2-0.9-0.3-1.4-0.5c0-0.3,0-0.6,0-1h-0.5v-0.5H351c0-0.3,0-0.6,0-1h-0.5v-0.5H350
	v-0.5h-0.5c0.1-0.8-0.2-1.5-1-1.9c0,0.6,0,1.3,0,1.9h0.5c0,1.1,0,2.2,0,3.4h0.5c-0.2,2.4,0,5.1,0.5,7.2h0.5c0,1,0,1.9,0,2.9h0.5
	c0,0.5,0,1,0,1.4c0.3,0,0.6,0,1,0v-0.5h0.5v-0.5h0.5v-0.5h0.5v-0.5h0.5v-0.5h0.5v0.5h0.5c0,0.6,0,1.3,0,1.9c-0.6,0-1.3,0-1.9,0v0.5
	c-0.5,0-1,0-1.4,0v0.5c-0.3,0-0.6,0-1,0v0.5H350c0-0.3,0-0.6,0-1c-0.3,0-0.6,0-1,0v-0.5h-0.5v-0.5h-0.5v-0.5h-0.5c0-0.3,0-0.6,0-1
	h-0.5v-0.5c-0.5,0-1,0-1.4,0c0,0.3,0,0.6,0,1h0.5c0,0.5,0,1,0,1.4h0.5v0.5h0.5v0.5h0.5v0.5h0.5c0,0.6,0,1.3,0,1.9h-0.5v0.5h-0.5v0.5
	h-0.5c0.2,1.9,0.5,3.4,1,5.3h-0.5v0.5h-0.5v0.5c-0.5,0.2-0.9,0.3-1.4,0.5v-0.5c-0.3,0-0.6,0-1,0v0.5h-0.5c0,0.8,0.2,1.3,0.5,1.9
	h-0.5v0.5c-0.3,0-0.6,0-1,0v0.5c-0.6,0-1.1,0.4-1.4,1c-1.6-0.5-3.6-0.3-5.3,0.5v0.5h-0.5v0.5h-0.5c0,0.5,0,1,0,1.4
	c-0.6-0.1-1.1,0-1.4,0.5v-0.5c-0.4-0.1-0.8,0-1,0.5v-0.5h-0.5c0,0.3,0,0.6,0,1c-0.9,0-1.1,0.6-1,1.4h-0.5c0,0.3,0,0.6,0,1h0.5
	c0,1.1,0,2.2,0,3.4h0.5c0,0.3,0,0.6,0,1h-0.5v0.5c-1.1-0.4-2.1-0.5-3.4-0.5c0,0.3,0,0.6,0,1h-0.5c0-0.3,0-0.6,0-1c-0.5,0-1,0-1.4,0
	v0.5h-0.5v0.5h-0.5v-0.5c-0.8,0-1.6,0-2.4,0v0.5c-0.5,0.2-0.9,0.3-1.4,0.5v0.5c-1.2-0.3-2,0-2.4,1h-0.5c0,0.3,0,0.6,0,1h-0.5
	c0,0.5,0,1,0,1.4h-0.5c0.6-1.6,0.6-3.3,0-4.8h-0.5c0-1.1,0-2.2,0-3.4h0.5v0.5h0.5v0.5c1.3,0.1,1.7-0.7,1.4-1.9h-0.5
	c0.1-2.7,0.4-5.2,1-7.7h0.5c0-0.8,0-1.6,0-2.4h-0.5c0.4-1.4,0.5-2.5,0-3.8c-0.6-0.3-1.3-0.7-1.9-1v-0.5h-0.5c0-0.3,0-0.6,0-1h-0.5
	v-0.5h-0.5v-0.5H316v-0.5h-0.5c0-1,0-1.9,0-2.9H315c0-0.3,0-0.6,0-1h-0.5v-0.5H314v-0.5h-0.5v-0.5c-0.6,0-1.3,0-1.9,0
	c0-0.6,0-1.3,0-1.9h0.5c0-1.1,0-2.2,0-3.4h0.5c0.3-0.6,0.5-1.2,0.5-1.9h0.5c-0.3-1.3,0-2.4,1-2.9c0-0.6,0-1.3,0-1.9H314
	c-0.1-0.8-0.6-1.4-1.4-1.4c-0.4-0.7-0.6-1.5-0.5-2.4h0.5c0.1-0.9-0.1-1.7-0.5-2.4h-0.5c0-0.3,0-0.6,0-1h-0.5v-0.5h-0.5
	c-0.2-2.6,0-4.9,0.5-7.7h0.5c0-0.5,0-1,0-1.4h0.5c0-1.2-0.1-2.3-0.5-3.4c-0.3,0-0.6,0-1,0v-0.5c-0.3,0-0.6,0-1,0V331
	c-0.3,0-0.6,0-1,0v-0.5c-0.5,0-1,0-1.4,0V330h-0.5v-0.5c-0.7,0-1-0.3-1-1h0.5c-0.2-1.5,0-3.1,0.5-4.3h0.5v-0.5h0.5v-0.5h-0.5
	c-0.2-0.5-0.3-0.9-0.5-1.4h-0.5v-0.5c0.6,0,1.3,0,1.9,0c0,0.8,0.2,1.3,0.5,1.9c0.5-0.4,0.6-0.8,0.5-1.4h-0.5v-0.5h0.5
	c0-2.1,0-4.2,0-6.2h0.5l-0.5-0.5h0.5l-0.5-0.5h0.5c0.7-2,0.7-4.3,0-6.2h0.5c0-1.1,0-2.2,0-3.4c-0.3,0-0.6,0-1,0v-0.5
	c-0.5,0-1,0-1.4,0v-0.5h-0.5v-0.5h-0.5c0-0.7,0.3-1,1-1v-0.5h-0.5v-0.5h-0.5v-0.5h0.5v-0.5h0.5v-0.5h0.5v-0.5h0.5v-0.5h0.5
	c0-0.6,0-1.3,0-1.9h0.5v0.5c0.3,0,0.6,0,1,0c-0.1-0.4,0-0.8,0.5-1c-0.7-0.2-1.4,0-1.9,0.5c0-1.4,0.7-1.8,1.9-1
	c0.2-0.4,0.5-0.6,1-0.5c0-0.7,0.3-1,1-1c-0.4-0.2-0.6-0.5-0.5-1h-0.5c0-0.3,0-0.6,0-1h-0.5v-0.5c-0.9,0-1.1-0.6-1-1.4h-0.5v-0.5
	h-0.5c0-0.3,0-0.6,0-1h-0.5c0-0.3,0-0.6,0-1h-0.5c-0.3-1.9-0.6-3.4-1-5.3h0.5c0-0.6,0-1.3,0-1.9h-0.5c0.5-0.8,0.7-1.8,0.5-2.9
	c0.5,0,1,0,1.4,0v0.5h0.5v0.5h0.5c0,1.3,0.3,2.3,1,3.4h0.5c0.3,0.6,0.5,1.2,0.5,1.9h0.5c0,0.5,0,1,0,1.4h0.5c0,0.5,0,1,0,1.4h0.5
	c0,0.3,0,0.6,0,1h0.5v0.5c0.7,0.2,1.2,0.7,1.4,1.4c0-0.3,0-0.6,0-1h0.5c0-0.3,0-0.6,0-1h0.5v-0.5h-0.5c0-0.6,0-1.3,0-1.9h0.5v0.5
	h0.5c-0.3-0.8-0.6-1.6-1-2.4c-0.3,0-0.6,0-1,0c0-0.3,0-0.6,0-1h0.5c-0.8-0.6-1.2-1.4-1-2.4h-0.5c-0.3-1-1.2-1.5-2.4-1.4v-0.5
	c-0.8,0-1.3-0.2-1.9-0.5v-0.5c-0.3,0-0.6,0-1,0v-0.5h-0.5c-0.4-0.7-0.6-1.5-0.5-2.4h-0.5v-0.5h-0.5v-0.5c-0.3,0-0.6,0-1,0
	c0-0.7,0.3-1,1-1c1.1-2.8,1.5-5.5,1.4-8.6c-0.6,0.1-1.1,0-1.4-0.5h1c0-0.3,0-0.6,0-1h0.5c-0.1-1.9,0.2-3.6,1-5.3h0.5v-1h0.5
	c0.1-3,0.7-6.1,1.9-8.6h0.5C314.6,245,316,241.5,316.9,238.3z M314,295.9c-0.6,0-1.3,0-1.9,0c0,0.3,0,0.6,0,1c0.3,0,0.6,0,1,0
	c-0.1-0.4,0-0.8,0.5-1v0.5h0.5V295.9z M333.2,374.7h-0.5c0,1,0,1.9,0,2.9c-0.3,0-0.6,0-1,0v-0.5c-0.5,0-1,0-1.4,0c0,0.8,0,1.6,0,2.4
	h0.5c0,0.8,0,1.6,0,2.4h0.5v0.5h-0.5c0,0.5,0,1,0,1.4h0.5v-0.5c0.3,0,0.6,0,1,0l-0.5-0.5c1,0,1.9,0,2.9,0c0-0.3,0-0.6,0-1h0.5v-0.5
	h0.5c0.2-0.5,0.3-0.9,0.5-1.4h0.5v-0.5c0.3,0,0.6,0,1,0c-0.4-0.2-0.6-0.5-0.5-1h-0.5V378h-0.5c0-0.7-0.3-1-1-1v-0.5h-0.5v-0.5h-0.5
	v-0.5h-0.5v-0.5h-0.5V374.7z"/>
<path id="path53_1_" class="st0" d="M236.9,246.8c-0.4,0.1-0.8,0-1-0.5h0.5v-0.5c0.6-0.3,1.2-0.5,1.9-0.5c0,1.1,0,2.2,0,3.4h0.5
	c0.4,1.1,1.3,1.8,2.4,1.9v0.5h0.5c-0.1,0.4,0,0.8,0.5,1c-1,1.5-1.2,3.1-0.5,4.8c0.8,0.3,1.3,1,1.4,1.9h0.5c0.5,1.3,0.8,2.4,1,3.8
	c-0.6,0.3-1.2,0.5-1.9,0.5c0.2-0.4,0.5-0.6,1-0.5c0.1-0.9-0.1-1.7-0.5-2.4h-0.5c0.4-0.2,0.6-0.5,0.5-1c-0.5,0-1,0-1.4,0
	c0,0.3,0,0.6,0,1h-0.5v0.5c-1.4-0.1-2.3,0.6-2.9,1.9c0.4,0.6,0.5,1.2,0.5,1.9c0.6,0,1.3,0,1.9,0c0,0.5,0,1,0,1.4
	c0.7,0.4,1.7,1,2.4,1.4c1.4,1.7,3.7,2.7,6.2,2.9v0.5c1.3,0,2.6,0,3.8,0v0.5h0.5v0.5h0.5c0.1,0.8,0.6,1.4,1.4,1.4v0.5
	c3.6,2.2,5.1,6.4,4.3,11c-0.2,1.6,0.1,2.9,1,4.3c-0.3,0-0.6,0-1,0v0.5h-0.5c-0.3,1.9-0.7,3.5-1.4,5.3h-0.5c0,0.3,0,0.6,0,1H257
	c0,0.3,0,0.6,0,1h-0.5c-0.5,1.8-1.1,3.4-1.9,5.3h-0.5c-0.3,1-0.6,1.9-1,2.9h-0.5v0.5c-0.3,0-0.6,0-1,0v0.5h-0.5v0.5
	c-0.3,0-0.6,0-1,0v0.5c-0.7,0-1,0.3-1,1h-0.5v0.5c-1.3,0.2-2.5-0.2-3.4-1c-0.8-1.3-1.7-3-2.4-4.3h-0.5c0-0.8,0-1.6,0-2.4h-0.5
	l0.5-0.5c-0.5-0.9-0.7-2.2-0.5-3.4h0.5l-0.5-0.5h0.5c0-0.5,0-1,0-1.4h0.5c0-0.6,0-1.3,0-1.9h0.5c0-1,0-1.9,0-2.9h0.5
	c0.1-0.4,0-0.8-0.5-1h0.5v-0.5c0.3,0,0.6,0,1,0c0-0.7,0.3-1,1-1c0.3-1.6,0.4-2.6,0.5-4.3h0.5v-0.5h0.5c0.4-2.6,0.7-5,1-7.7h-0.5
	v-0.5h-0.5c-0.1-0.8-0.6-1.4-1.4-1.4v-0.5h-0.5v-0.5c-2.7-1.6-6-2.2-8.6-1.4c-0.2-0.4-0.5-0.6-1-0.5c-0.2-0.9-0.7-1.4-1.4-1.4
	c-0.5-2.7-0.8-5.1-1-7.7h0.5c0.3-1,0-1.7-1-1.9v-0.5h0.5c0-0.3,0-0.6,0-1c1.3,0.2,2.1,0.3,3.4,0.5c0-0.3,0-0.6,0-1h-0.5v-0.5h-0.5
	c0-0.8,0.2-1.3,0.5-1.9h0.5c0.2,0.5,0.3,0.9,0.5,1.4h0.5c-0.4,0.2-0.6,0.5-0.5,1h0.5v0.5h0.5c0-0.6,0-1.3,0-1.9h-0.5
	c0.4-0.2,0.6-0.5,0.5-1c0.3,0,0.6,0,1,0v-0.5h-0.5V254h-0.5v-0.5c-0.8,0.2-1.4-0.1-1.4-1c-1.5,0.2-2.2-0.5-2.4-1.9h0.5l-0.5-0.5
	C236.1,249.8,237,248.6,236.9,246.8z"/>
<g>
	<path id="path21_2_" class="st0" d="M212.9,370v-0.5c0.3,0,0.6,0,1,0v0.5h0.5v0.5l0.5-0.5c-0.4,1.4,0,2.4,1.4,2.4V372h0.5v0.5h0.5
		c-0.5,0.5-1.2,0.7-1.9,0.5v0.5h-0.5c0.3,1,0.4,1.8,0.5,2.9h0.5c-0.1,2.1,0.1,3.9,0.5,5.8h0.5c0.2,1.3,0.3,2.1,0.5,3.4h0.5
		c-0.3,1.7-0.7,3.3-1.4,4.8c-1.1-0.5-2.1-0.8-3.4-1c0.5,1.8,0.5,3.6,0,5.3h0.5v0.5h-0.5c-0.1,1.9-1,3.1-2.4,3.8
		c-0.9,0.8-2,1.6-2.9,2.4c-1.2-4.4-0.6-8.5,1.9-11c1.1-1.8,1.1-3.8,0-5.8H209c0-1.8,0-3.5,0-5.3h0.5c-0.5-0.8-0.7-1.8-0.5-2.9h-0.5
		c0-1,0-1.9,0-2.9h-0.5v-0.5h-0.5c0.1-0.6,0-1.1-0.5-1.4c0.5-0.6,0.8-1.2,1-1.9c0.5,0,1,0,1.4,0v0.5c0.5,0,1,0,1.4,0v0.5
		C211.7,370.5,212.3,370.4,212.9,370z M210.5,370.5v0.5H210v0.5h-0.5v0.5c0.4,0.1,0.8,0,1-0.5l0.5,0.5v-0.5h-0.5l0.5-0.5
		L210.5,370.5z M209.5,372.4c-0.4-0.1-0.8,0-1,0.5c0.3,0,0.6,0,1,0V372.4z"/>
</g>
</svg>
