<?xml version="1.0" encoding="utf-8"?>
<!-- Generator: Adobe Illustrator 23.0.4, SVG Export Plug-In . SVG Version: 6.00 Build 0)  -->
<svg version="1.1" id="Layer_2" xmlns="http://www.w3.org/2000/svg" xmlns:xlink="http://www.w3.org/1999/xlink" x="0px" y="0px"
	 viewBox="0 0 1179.8 687.7" style="enable-background:new 0 0 1179.8 687.7;" xml:space="preserve">
<style type="text/css">
	.st0{fill-rule:evenodd;clip-rule:evenodd;fill:#555555;}
</style>
<path id="path59_1_" class="st0" d="M610.3,428.3v0.5h0.5L610.3,428.3z M610.3,418.7c-0.3,1.2-0.8,2.3-1.4,3.4h0.5v0.5h0.5v-0.5h0.5
	v-0.5h-0.5c0-0.3,0-0.6,0-1h0.5C610.3,420,610.3,419.3,610.3,418.7z M632.4,316.9v0.5h0.5L632.4,316.9z M625.7,315h-0.5l0.5,0.5V315
	z M587.3,465.3h-0.5v0.5h-0.5v0.5h0.5v-0.5h0.5V465.3z M504.8,486.9c-1.5,0.4-2.4,0.4-3.8,0c0.1,0.4,0,0.8-0.5,1
	c0.7,0.5,1.5,0.6,2.4,0.5c-0.4,0.9-1.1,1.7-1.9,2.4c2,0.9,1.6,1.7-0.5,2.4c0,0.5,0,1,0,1.4H500v0.5c0.3,0,0.6,0,1,0v0.5h-0.5
	c0,0.5,0,1,0,1.4c0.5-0.2,0.9-0.3,1.4-0.5v0.5c-0.9,0-1.7,0.3-2.4,1c0.4,0.2,0.6,0.5,0.5,1c-0.7,0-1,0.3-1,1l-1,0.5c0,0.3,0,0.6,0,1
	h1v0.5c-1,0-1.9,0-2.9,0c-0.2,2.5-1.4,3-3.4,1.4l0.5-1h-0.5v0.5h-0.5l0.5,0.5c-0.4,0.5-0.9,0.8-1.4,1c-2.6-0.9-5.3-1.5-8.2-1.9
	c0-0.5,0-1,0-1.4c-0.5,0-1,0-1.4,0v0.5h0.5v0.5c-1.8,1-3.2,2.2-4.3,3.8c0.7,0.5,0.7,1,0,1.4c0-0.3,0-0.6,0-1
	c-1.1-0.1-1.6,0.4-1.4,1.4c-1.1,2.4-0.1,4.9,2.9,5.8v-0.5c2.8-1.4,6.2-2.4,9.6-2.9v-0.5c1.8-0.3,3.6-0.8,5.3-1.4v-0.5h1V507h0.5
	v-0.5h1c0-0.3,0-0.6,0-1c0.3,0,0.6,0,1,0v0.5l1-0.5H498v-0.5c0.5,0,1,0,1.4,0v-0.5c0.8,0,1.3,0.2,1.9,0.5v-0.5h0.5
	c-0.4-0.2-0.6-0.5-0.5-1h0.5v0.5c0.3,0,0.6,0,1,0v0.5c0.3,0,0.6,0,1,0c0-0.6,0-1.3,0-1.9h-0.5c-0.2-0.8-0.3-1.6-0.5-2.4h-0.5v-0.5
	c0.5,0,1,0,1.4,0c-0.1,0.4,0,0.8,0.5,1c-0.5,0.4-0.6,0.8-0.5,1.4l1,0.5v0.5l0.5-0.5l0.5,1c-0.8-2-0.8-3.8,0.5-4.8
	c-0.5,0.3-0.7,0.8-0.5,1.4h0.5c0-0.3,0-0.6,0-1h0.5c-0.1,0.4,0,0.8,0.5,1c0-0.5,0-1,0-1.4h-0.5v-0.5c0.5,0,1,0,1.4,0v0.5h0.5v1h0.5
	c-1,0.6-1.9,1.2-1.4,2.4c-0.7,0.7-0.7,1.4,0,1.9c-0.2-2.2,0.7-3.5,2.9-3.8v0.5H510v0.5c0.4-0.1,0.8,0,1,0.5c0-0.3,0-0.6,0-1h0.5
	c0-0.3,0-0.6,0-1c0.9,0.8,1.6,0.6,1.9-0.5l1-0.5h-0.5v-0.5h-0.5v-0.5h-0.5c0-0.3,0-0.6,0-1h-0.5c0-0.5,0-1,0-1.4
	c-0.9,0.4-1.8,0.5-2.9,0.5c0-0.3,0-0.6,0-1l-1-0.5c0-0.5,0-1,0-1.4h-0.5c0,0.3,0,0.6,0,1l-1,0.5v0.5c-0.6,0-1.3,0-1.9,0v0.5
	c-0.3,0-0.6,0-1,0c0-0.3,0-0.6,0-1h1v-1c-0.5-0.2-0.9-0.3-1.4-0.5c0.2-0.4,0.5-0.6,1-0.5c0-1.3,0.3-2.3,1-3.4c-0.3,0-0.6,0-1,0
	C504.8,488.5,504.8,487.7,504.8,486.9z M572.9,487.8h-0.5v0.5h0.5V487.8z M611.3,388.9c-0.3,0.7-0.7,1.3-1.4,1.4
	c-0.3,1-0.6,1.9-1,2.9c1.1-0.1,1.6,0.4,1.4,1.4c-0.5,0-1,0-1.4,0v0.5h-0.5c0,0.8,0,1.6,0,2.4h-0.5c0,0.5,0,1,0,1.4h-0.5
	c0,0.3,0,0.6,0,1h0.5c0,0.5,0,1,0,1.4h0.5c-0.1,0.9,0.1,1.7,0.5,2.4c0.3,0,0.6,0,1,0l-0.5,0.5c-0.3,1.6,0.2,3.2,1.4,4.3l0.5,1
	c-0.6,0.5-0.9,1.1-1,1.9l0.5,0.5c0.3-3.2,0.4-6.1,0.5-9.1h-0.5v-0.5h-0.5l0.5-0.5c-0.7-1.3-0.7-3,0-4.3c-0.6,0-1.1-0.4-1.4-1h0.5
	c0.2-1.5,1.1-2.9,2.4-3.8c-0.4-0.2-0.6-0.5-0.5-1c0.3,0,0.6,0,1,0C612.4,390.8,611.9,389.8,611.3,388.9z M524,488.8h-0.5
	c0.1,0.4,0,0.8-0.5,1c0-0.9-0.6-1.1-1.4-1v0.5c-0.9,0.2-1.2,0.9-1,1.9c0.3,0,0.6,0,1,0c-0.2,0.4-0.5,0.6-1,0.5c0,0.5,0,1,0,1.4h-0.5
	c0-0.6,0-1.3,0-1.9c-0.3,0-0.6,0-1,0c0,0.3,0,0.6,0,1h-0.5v-0.5c-0.3,0-0.6,0-1,0v0.5h-0.5c-0.2,0.8-0.3,1.6-0.5,2.4h-0.5v-0.5
	c-0.5,0-1,0-1.4,0c0.2,0.5,0.3,0.9,0.5,1.4h0.5v0.5c0.7,0,1-0.3,1-1h0.5v0.5h-0.5v0.5h-0.5c0,0.3,0,0.6,0,1c0.3,0,0.6,0,1,0v0.5
	c-0.9-0.1-1.7,0.1-2.4,0.5c0,0.3,0,0.6,0,1h0.5v0.5h0.5v-0.5c0.5-0.2,0.9-0.3,1.4-0.5l-0.5,1c0.4-0.2,0.6-0.5,0.5-1
	c0.8,0.4,1.6,0.6,2.4,0.5v-1c0.2,0.4,0.5,0.6,1,0.5c0.2-0.8,0.6-1.3,1.4-1.4v1.4l1,0.5l0.5-1v0.5h0.5v-0.5c0.4,0.4,0.9,0.6,1.4,0.5
	c0.1-0.8,0.2-1.3,0.5-1.9c0.5,0.6,1.2,0.9,1.9,1c0.2-1.3,0.1-2.7-0.5-3.8c-0.9,0.6-2,0.7-2.9,0c-0.7,0.7-0.7,1.6,0,2.4
	c-0.3,0-0.6,0-1,0c0.2-0.9,0.1-1.8-0.5-2.4h0.5v-0.5H523l1-1.4l-0.5,1h0.5v-0.5h0.5l0.5-1h0.5c0-0.3,0-0.6,0-1c-0.3,0-0.6,0-1,0v0.5
	H524c0-0.3,0-0.6,0-1h-0.5v-0.5h0.5V488.8z M655,248.3l0.5,1C655.6,248.8,655.4,248.5,655,248.3z M609.9,335.2h-0.5v0.5h0.5V335.2z
	 M607,351c-0.3,0-0.6,0-1,0v0.5h0.5c0,0.3,0,0.6,0,1h0.5C607,352,607,351.5,607,351z M616.1,365.4c0.2,0.5,0.3,0.9,0.5,1.4h0.5
	C617.2,366.2,616.9,365.7,616.1,365.4z M680.9,209.4c0,0.5,0,1,0,1.4l0.5-1L680.9,209.4z M668.4,121.1c0,0.5,0,1,0,1.4h-0.5
	c-0.6,9.1-2.3,33.3,2.9,39.4c-1,0.6-1.9,1.5-2.4,2.4h-0.5c-0.1,0.8-0.6,1.4-1.4,1.4c-0.7,1.5-1.6,3.3-2.4,4.8
	c1.4,3.6,3.2,7.4,4.8,10.6c-1.4,5.7,0.1,9.7,3.8,13.4l1.4,1c-0.7,1.5-0.7,3.3,0,4.8v-1c0.5,0.6,0.6,1.2,0.5,1.9
	c7.7,4.1,15.4,8.6,23,13c-0.8-0.4-1.6-0.8-2.4-1l0.5,0.5h-0.5v0.5l0.5-0.5l1.4,0.5c-0.5,0.3-0.7,0.8-0.5,1.4l1,0.5l-1.4,0.5l0.5,1
	c-0.3,0.8-0.7,1.4-1.4,1.9c0.5,0.5,0.7,1.1,0.5,1.9l-1,0.5l1,1c0.1,3.1-0.3,5.6-1.4,8.2c0.7,1,0.7,2.2,0,3.4h0.5l-1,0.5
	c-0.9-2.2-1.9-3.9-3.4-5.8H690v-0.5c-1-0.7-2-1.6-2.9-2.4c0,0.3,0,0.6,0,1c-1.1,0-2-0.3-2.9-1c-0.6-1.1-1.6-2.7-2.4-3.8
	c-0.5,0-1,0-1.4,0c0.1-0.4,0-0.8-0.5-1c0.4-2.4,2-3.9,4.3-4.3v0.5c0.8-0.7,1.6-0.7,2.4,0l1-1.4h0.5c0.6-1.3,0.6-2.6,0-3.8
	c-1,0.1-1.8-0.4-2.4-1.4c-1,1.6-2.7,3.3-4.3,4.3l-0.5,1l-0.5-0.5c1.6-1,2.7-2.5,3.4-4.3c-0.6-0.2-1.1-0.1-1.4,0.5
	c-1-0.4-1.5-0.7-2.4-1.4c0.2-2.7-0.5-5.1-1.9-7.2c-0.3,0-0.6,0-1,0c0.3,1.2,0.9,2.1,1.9,2.9c-0.6,1.2-0.7,2.5-0.5,3.8l-1-3.4
	c-0.2,1.3,0,2.6,0.5,3.8h0.5l-0.5,0.5c0.3,1.4,0.7,3.3,1,4.8l-0.5,1c0.7,0.8,0.7,1.6,0,2.4l-1-1.4c1.1,5.3,4.5,9.8,9.1,12v-0.5
	c0.9,0.3,1.8,0.5,2.9,0.5c1.3,1.8,2.3,3.6,2.9,5.8c2.5,0.7,3.7,2.4,2.9,4.8l0.5,0.5c-0.4,1-1,1.8-1.9,2.4c0.2,1.5,0,2.9-0.5,4.3
	l-1.9-1.9h0.5c0-1.2-0.5-2.2-1.4-2.9l1,2.4c-0.8,3.2-1.8,6.3-2.9,9.6c-2.3-1.8-3.2-4.4-2.4-7.2l0.5,0.5c0-1,0-1.9,0-2.9
	c-5.2-3.9-11.2-5.1-17.8-3.8c-1.3-3-2-6.3-1.9-9.6c-0.4,0.4-0.6,0.9-0.5,1.4l-1.4-1.9h-0.5c-0.5-1.1-0.7-2.2-0.5-3.4l1-0.5l-0.5-0.5
	h0.5v-0.5l0.5,0.5l-0.5-1.4c-0.2,0.4-0.5,0.6-1,0.5c-0.2,0.8-0.3,1.6-0.5,2.4c-0.9-0.7-1.5-1.2-2.4-1.9c1.2-2,1.2-4.3,0-6.2
	c0.3-0.6,0.8-0.9,1.4-1l-0.5-1v1c-0.5,0.1-1-0.1-1.4-0.5v-0.5h0.5l0.5-1c-0.6-1.1-1.3-2.2-1.9-3.4c0.1,1,0.4,1.9,1,2.9
	c-0.4-0.1-0.8,0-1,0.5c0.7,0.8,0.7,1.8,0,2.9h-1l-0.5-1l-0.5,1c1.5,1.6,2,3.3,1.9,5.3h0.5c-0.4,0.2-0.6,0.5-0.5,1l-1,0.5
	c-0.2-0.4-0.5-0.6-1-0.5c0.2-5.9-1.4-10.8-5.3-14.4c1.4-2.2,2.1-4.6,1.9-7.2h0.5c-0.3-1.4-1-2.8-1.9-3.8l-1,0.5l-1-2.4
	c1.3-1.3,1.3-2.6,0-3.8v1c-0.5-0.9-0.8-1.9-1-2.9l-0.5,1c0.1-1.8-1-3-2.9-3.4c0.3-2.9-1.4-5.4-4.3-6.2l1-1c-1.1-1.3-1.9-2.7-2.4-4.3
	c-0.8,0-1.6,0.2-2.4,0.5c0.4-0.5,0.9-0.8,1.4-1c0.5-0.8,0.6-1.7,0-2.4l0.5-0.5l0.5,0.5c1.5-1.1,2.8-2.5,3.8-3.8c0-0.6,0-1.3,0-1.9
	c3.3-2.9,6.1-6.9,7.7-11c-0.8-0.3-1.4-0.7-1.9-1.4c0.8-2.2,1.6-3.9,2.9-5.8c-0.3-0.3-0.6-0.6-1-1v0.5c-1.4-0.4-1.2-1.2,0-2.4
	l0.5,0.5c-0.3-0.7-0.4-1.1-0.5-1.9c-1.1-0.7-2.2-1.2-3.4-1.4c0.2-0.6,0.1-1.1-0.5-1.4l0.5-1c-1.5-2.5-2.9-5.7-3.8-8.6h-1
	c1.2,2.2,2.2,4.5,2.9,6.7c0.1,3.5,0.1,8.8,0,12c2.1,6.9,0.3,13.4-5.3,17.8c0.5,1,0.7,2.2,0.5,3.4c-0.8,0-1.5-0.4-1.9-1
	c-1.7,0.3-3.1,1.1-4.3,2.4c-1.4-2.2-2.9-4.4-4.3-6.7c0.5,1,0.8,2.2,1,3.4h0.5c0.3,1.6,1,3.3,1.9,4.8l-1,1h1v0.5h-0.5
	c0.2,0.4,0.5,0.6,1,0.5l-1,0.5c0.5,0.5,1.2,0.7,1.9,0.5v0.5l-1,0.5h1c-0.7,0.8-0.7,1.8,0,2.9c0.2-0.4,0.5-0.6,1-0.5l-0.5,0.5
	l0.5,0.5l-1.4,0.5c0.6-0.2,1.1-0.1,1.4,0.5c0.3-0.8,0.8-1.1,1.4-1v0.5l-1.4,1c0.2,0.4,0.5,0.6,1,0.5v0.5l1.4-1
	c2.4,2.6,4.7,5.5,6.7,8.2c-0.4,0.8-0.6,1.6-0.5,2.4c-1.8,0.1-3,0.9-3.4,2.4l-0.5-1H642l0.5,1l-0.5,0.5l-0.5-1h-0.5
	c0.5,3.2,0.8,6.8,1,10.1c0.4,0.9,1.1,1.2,1.9,1c0.4,1.8,0.4,3.4,0,5.3c-0.4-1.3-0.9-2.6-1.4-3.8c-0.4,0.2-0.6,0.5-0.5,1h-0.5
	c0.5,0.5,1,1,1.4,1.4c-0.4,0.2-0.6,0.5-0.5,1h0.5c0.3,1.5,0.6,2.8,1,4.3c0.6,0.2,1.3,0.3,1.9,0.5c0,1.4,0,2.9,0,4.3
	c-1.4,0.4-2.4,1.2-3.4,2.4c-0.4-0.4-0.9-0.6-1.4-0.5c1.6,0.9,3.1,0.6,4.3-1c1.2,0.8,2.5,1.2,3.8,1.4c-2,1.7-3,3.9-2.4,6.2
	c-1.4,0.7-1.8-0.5-1.9-1.9c-0.6,0.7-1.4,1.2-2.4,1.4c-0.2-0.4-0.5-0.6-1-0.5l0.5,2.4c-0.7,0.5-1.5,0.6-2.4,0.5
	c0.7,0.4,1.5,0.7,2.4,1l1.4-1.4c1.4,3.1,3.2,5.8,5.3,8.2c2.5,3.2,6.5,4.5,11,3.8c-1.5,1-3,2.1-4.3,3.4l-0.5-0.5c0.1,0.4,0,0.8-0.5,1
	v-1c-0.8-0.6-1.7-1.1-2.4-1.4c0,0.5,0,1,0,1.4h-0.5v0.5c-0.6-0.1-1.1,0-1.4,0.5c1.2,0.1,2.3-0.1,3.4-0.5c0.9,4.7,1.8,10.4,2.4,14.4
	c-0.4,0.9-0.6,1.9-0.5,2.9c-3.4,4.5-6,10-7.7,15.8c-2.4-1.1-4.4-2.6-6.2-4.3c-0.5-2-0.7-4.4-0.5-6.7h0.5v-1h1
	c-0.4-0.9-0.6-1.6-0.5-2.9l-0.5,1c-0.4-0.2-0.6-0.5-0.5-1l1-0.5h-0.5V267l-0.5,0.5l-0.5-1.4c0.2-0.4,0.5-0.6,1-0.5
	c0.9-0.9,1.2-2,0.5-2.9c0.3-0.3,0.6-0.6,1-1l0.5,1l0.5-0.5l-0.5-1c0.9-0.6,1.8-1,2.9-1l-1-1c-1.4,1.4-2.8,1.6-4.3,0.5
	c0.3,0.3,0.6,0.6,1,1c-0.7,0.8-1.6,0.6-2.4-0.5l0.5,0.5h-0.5c0.3,0.6,0.8,0.9,1.4,1c0,0.8,0,1.6,0,2.4c-0.3,0-0.6,0-1,0
	c-0.3-1.1-0.9-1.9-1.9-2.4l0.5,1h0.5c-0.2,1,0.1,1.8,1,2.4c-1.1,1.5-0.8,3.2,0.5,4.8c-0.6,0.5-1.2,0.6-1.9,0.5v0.5
	c-0.4-0.7-1.1-0.8-1.9-0.5v-0.5c-0.5,0.1-1-0.1-1.4-0.5c-0.5-2.8-1.3-5.5-2.4-8.2c-0.6,0-1.1,0.4-1.4,1c0-0.3,0-0.6,0-1l-0.5,0.5
	v-0.5c-1.7-0.4-2.9-1.3-3.4-2.9h-0.5l0.5,1c-0.8,0.5-1.8,0.7-2.9,0.5c2.6,0.4,5,1.6,7.2,3.4c0.6,1.1,1.2,2.2,1.9,3.4
	c-0.2,1-0.8,1.5-1.9,1.4l-1.4-1.4v0.5c-1,0.2-2,0-2.9-0.5c1.2,1.5,3,2.4,4.8,2.4v0.5c0.8,0.2,1.4,0.1,1.9-0.5l0.5,0.5l-1.9,1
	c-1.1-0.7-2.4-0.7-3.4,0v-0.5c-3.9-0.3-7.4-0.7-11.5-1.4V268h-1.4l1,0.5c-1.3,0-2.6,0-3.8,0l-1-1.4h0.5c0-0.6,0.4-1.1,1-1.4l-1-1.4
	h-1.4c0-0.5,0-1,0-1.4h-0.5v-0.5c-0.7-0.5-1.5-0.6-2.4-0.5l-0.5-1c-0.3,0.3-0.6,0.6-1,1h0.5c0.1,1.9,1.1,3,2.9,2.9v1h0.5
	c-0.3,1-1,1.7-1.9,1.9l0.5,0.5l-0.5,1c1,1.6,1.5,3.7,1.4,5.8h0.5c0.5,1,1,1.9,1.4,2.9l1.4-0.5v1.4c-0.8-0.7-1.6-0.7-2.4,0
	c1.6,5.5,0.4,10.3-3.8,14.4l0.5,1.9c-0.4,0.4-0.9,0.6-1.4,0.5c0.1,0.4,0,0.8-0.5,1c2.4,0.8,3.5-0.4,3.8-2.9l-0.5-0.5
	c3.3-2.2,4.9-5.6,4.8-9.6l-0.5-0.5l0.5-0.5c3.1,0.8,5.8-0.2,7.7-2.9c1.5,2.3,3.8,4,6.2,4.8v0.5c1-0.1,2,0,2.9,0.5
	c-0.3,0.6-0.6,1.3-1,1.9c0.5,0.7,0.7,1.5,0.5,2.4l-1,0.5l-0.5-0.5l-1.9,1c-2.9-1-5.6,0.1-7.2,2.9H619v0.5c-0.4-0.4-0.9-0.6-1.4-0.5
	c-0.1,1-0.6,1.8-1.4,2.4c1.1-0.3,2-1,2.4-1.9c0.5,0.2,0.9,0.3,1.4,0.5v0.5h0.5v-0.5c0.8,0,1.3-0.2,1.9-0.5v-0.5c0.3,0,0.6,0,1,0
	v-0.5h0.5c0-0.3,0-0.6,0-1c0.5,0,1,0,1.4,0v-0.5c1.2-0.1,2.4,0,3.4,0.5v0.5h0.5c0.2,1.1,0.9,1.6,1.9,1.4v0.5c0.3-0.3,0.6-0.6,1-1
	c-0.2,0.7,0,1.4,0.5,1.9h-0.5c0,1.6,0,3.2,0,4.8h-0.5v0.5h0.5c0,2.6,0.3,4.8,1,7.2h0.5c0.7,1.4,1.2,2.7,1.4,4.3h-0.5v0.5
	c-0.5,0.2-0.9,0.3-1.4,0.5c0,0.3,0,0.6,0,1c-0.5,0-1,0-1.4,0v-0.5c-0.5,0-1,0-1.4,0v-0.5h-0.5v-0.5h0.5v-0.5h-0.5v-0.5
	c-0.3,0-0.6,0-1,0c0-0.3,0-0.6,0-1c-0.2,0.4-0.5,0.6-1,0.5c-0.1,0.4,0,0.8,0.5,1h-0.5c0.3,1.2,0,2-1,2.4v0.5h-0.5c0,0.3,0,0.6,0,1
	c0.6-0.3,1.3-0.7,1.9-1v-0.5h0.5c0,1.1,0,2.2,0,3.4c0.2-0.4,0.5-0.6,1-0.5c-0.4-0.2-0.6-0.5-0.5-1h0.5c0-0.8,0.2-1.3,0.5-1.9
	c0.3,0,0.6,0,1,0v0.5h0.5c0.1,0.4,0,0.8-0.5,1h0.5v-0.5h0.5c0,0.3,0,0.6,0,1h0.5V316h0.5c-0.2,0.7,0,1.4,0.5,1.9c-0.3,0-0.6,0-1,0
	v0.5c0.7,0.7,1.5,1,2.4,1l-0.5,1l-1.9-1l-0.5,1c0.6,0.3,1.3,0.6,1.9,1v0.5c-0.8,0.1-1.4-0.2-1.9-1c-0.4,0.2-0.6,0.5-0.5,1H631
	c-0.2,1.1-0.9,1.2-1.9,0.5c0,0.5,0,1,0,1.4h-0.5c-0.2,0.5-0.3,0.9-0.5,1.4h-0.5c0,0.6,0,1.3,0,1.9h-0.5c1.8,1.6,4.1,2.1,6.7,1.4
	c0.7,3.1,0.3,7.6-1,9.6v0.5c-0.3,0-0.6,0-1,0v0.5c-1.3-0.3-2,0.2-1.9,1.4h-0.5c0-0.3,0-0.6,0-1h-0.5v0.5c-1.1,0.4-2.2,0.6-3.4,0.5
	v0.5h-0.5v-0.5h-0.5v0.5h-0.5v-0.5c-3.7,1.3-6.8,3.5-9.1,6.2v-0.5h0.5c0.1-0.4,0-0.8-0.5-1c0.5-0.5,0.7-1.2,0.5-1.9h-0.5
	c-0.8-1.3-0.7-2.7,0.5-3.8h-0.5v0.5h-0.5v0.5h-0.5c0,0.3,0,0.6,0,1c-0.6,0.1-1.1,0-1.4-0.5l-0.5,0.5l0.5,0.5
	c-0.8,0.1-1.4,0.6-1.4,1.4h-0.5v0.5h-0.5v0.5h-0.5v0.5h-0.5c-0.6-0.9-0.7-1.6,0.5-1.9c0-1.1,0-2.2,0-3.4h0.5V339h0.5v-0.5h-0.5
	c0-0.3,0-0.6,0-1h-0.5v-0.5h-0.5c-0.1-0.4,0-0.8,0.5-1h-0.5v0.5h-0.5v0.5h0.5c-0.1,0.4,0,0.8,0.5,1c-0.5,0.8-0.8,1.9-1,2.9h-0.5
	c0.1,1.1-0.4,1.6-1.4,1.4v0.5c-0.6,0-1.3,0-1.9,0c0.4,0.2,0.6,0.5,0.5,1h0.5c0,0.5,0,1,0,1.4h-0.5c0,0.5,0,1,0,1.4h0.5
	c0-0.3,0-0.6,0-1c0.8,0,1.3,0.2,1.9,0.5c0,0.6,0,1.3,0,1.9c0.5-0.5,0.7-1.2,0.5-1.9h0.5v0.5h0.5c0,0.5,0,1,0,1.4h0.5
	c0.2-0.5,0.3-0.9,0.5-1.4h0.5v0.5h0.5c0,1,0,1.9,0,2.9c0.3,0,0.6,0,1,0c-0.2,0.4-0.5,0.6-1,0.5c-0.3,1-1.2,1.2-2.4,1V351
	c-0.3,0-0.6,0-1,0v0.5l-0.5-0.5v0.5c0.3,0,0.6,0,1,0v0.5h0.5c-0.3,0.7-0.7,1.3-1.4,1.4v0.5c-0.3,0-0.6,0-1,0v0.5H606v0.5
	c-0.3,0-0.6,0-1,0c0,0.3,0,0.6,0,1h-0.5c0.2,0.4,0.5,0.6,1,0.5c0-1.3,0.4-1.8,1.4-1v-0.5c0.4,0.1,0.8,0,1-0.5l-0.5-0.5
	c0.4-0.1,0.8,0,1,0.5c0-0.5,0-1,0-1.4h0.5v-0.5c0.5,0,1,0,1.4,0l0.5,1c0.2-0.4,0.5-0.6,1-0.5c0.2-1.2,0.5-2.2,1-3.4c0.3,0,0.6,0,1,0
	c0,0.3,0,0.6,0,1h0.5v0.5c0.5,0,1,0,1.4,0c-0.4,0.9-1.3,1.6-2.4,1.9c-0.1,1.2,0,2.4,0.5,3.4c0.6,0,1.3,0,1.9,0c0,0.7,0.3,1,1,1
	c0,0.3,0,0.6,0,1h0.5v-0.5c0.3,0,0.6,0,1,0v0.5c-0.4-0.1-0.8,0-1,0.5c0.5,0.4,0.6,0.8,0.5,1.4h-0.5v0.5c0.8,0,1.6,0,2.4,0v-0.5
	c2.5,1.3,2.3,3.4,0.5,5.8c0.4,0.2,0.6,0.5,0.5,1h0.5c-0.1,0.7,0.2,1.1,1,1.4c-0.6,0-1.3,0-1.9,0c0.3-1.6,0-2.9-1.4-3.8V364H618
	c0,0.3,0,0.6,0,1h-0.5c0.2,0.5,0.3,0.9,0.5,1.4h-0.5c0,0.3,0,0.6,0,1c0.5-0.1,1,0.1,1.4,0.5c0,0.3,0,0.6,0,1h0.5v0.5
	c-0.7,0-1,0.3-1,1c2.4-0.2,4.1-1.2,4.8-3.4c-1.4,3.5-0.4,6.8,3.4,9.1c-0.4,1.9,0.3,3.5,1.9,4.3c-0.9,2.9-0.9,6.4,0,9.6h-0.5
	c-0.3,1.2,0,2.1,1,2.9h-0.5c0,0.7-0.3,1-1,1c-0.5,0.7-0.6,1.5-0.5,2.4h-0.5c-1.4,2.9-1.9,5.9-1.4,9.1l-0.5,0.5
	c0.4,0.2,0.6,0.5,0.5,1h0.5c0.2,0.5,0.3,0.9,0.5,1.4h-0.5c0,1.6,0,3.2,0,4.8h-0.5c0,0.3,0,0.6,0,1c0.3,0,0.6,0,1,0v0.5h0.5
	c0,1.9,0,3.8,0,5.8h-0.5v0.5h0.5c0,0.3,0,0.6,0,1h-0.5v0.5h-0.5c-0.2,0.5-0.3,0.9-0.5,1.4h-0.5c0.2-1-0.1-1.8-1-2.4
	c-4.3,1.2-5.1,4.3-3.4,8.6h0.5v0.5h0.5l-0.5,0.5c1,0.2,1.2,0.9,1,1.9h0.5c0,0.8-0.2,1.3-0.5,1.9c-0.3,0-0.6,0-1,0v0.5h-0.5v0.5h-0.5
	c-0.3,1.2-0.6,2.2-1,3.4h0.5c0,0.5,0,1,0,1.4H619c0,0.3,0,0.6,0,1c-0.5,0-1,0-1.4,0c0,0.3,0,0.6,0,1h-0.5v0.5
	c-0.5,0.2-0.9,0.3-1.4,0.5v0.5h0.5v0.5c-0.4-0.1-0.8,0-1,0.5c0-0.3,0-0.6,0-1h-0.5c0-0.6-0.4-1.1-1-1.4c-0.2,0.4-0.5,0.6-1,0.5v-0.5
	h-0.5c0-0.3,0-0.6,0-1h-0.5v-0.5c-1.1-0.4-1.8-1.3-1.9-2.4h-0.5c-0.6-1.2-0.6-2.6,0-3.8h0.5v-0.5h-0.5c0-1.3,0-2.6,0-3.8h0.5
	c0-0.3,0-0.6,0-1h-0.5c0-1.3,0.1-2.3,0.5-3.4h0.5c0-0.5,0-1,0-1.4h0.5V424h-0.5c0-0.3,0-0.6,0-1h-0.5c-0.1,1.1-0.2,1.9-0.5,2.9h-0.5
	c0,0.3,0,0.6,0,1h-0.5c0,0.3,0,0.6,0,1h-0.5c0,0.3,0,0.6,0,1h-0.5v0.5h0.5c0,0.6,0,1.3,0,1.9h0.5c0,0.5,0,1,0,1.4h-0.5
	c0,0.6,0,1.3,0,1.9h0.5v0.5h-0.5v0.5c-0.3,0-0.6,0-1,0v0.5h-0.5c0,0.3,0,0.6,0,1c-0.3,0-0.6,0-1,0v0.5h-0.5c0.1,0.4,0,0.8-0.5,1
	v-0.5h-0.5v0.5h-0.5c-0.3,0.6-0.5,1.2-0.5,1.9h-0.5c-0.2,0.5-0.3,0.9-0.5,1.4h-0.5v0.5h-0.5v0.5c-0.9,0.2-1.7,0.7-2.4,1.4v-0.5
	l-0.5,0.5l-0.5-0.5v0.5h-0.5c-0.2,0.5-0.3,0.9-0.5,1.4c0.6,0,1.3,0,1.9,0v-0.5h0.5c0-0.3,0-0.6,0-1h0.5v0.5h0.5v-0.5h0.5
	c0-0.3,0-0.6,0-1c0.8,0,1.6,0,2.4,0c0-0.7,0.3-1,1-1c-0.1-0.4,0-0.8,0.5-1c0.5,0.4,0.6,0.8,0.5,1.4c0.3,0,0.6,0,1,0
	c-0.1-0.4,0-0.8,0.5-1l-0.5-0.5c0.2-0.4,0.5-0.6,1-0.5c0-0.3,0-0.6,0-1h0.5v-0.5h0.5v-0.5h0.5l0.5-1c0.8,0.6,1.2,1.4,1,2.4h0.5v0.5
	h0.5l-0.5,0.5h0.5v0.5h0.5c0,0.5,0,1,0,1.4c1,0,1.9,0,2.9,0v0.5c-0.9,0.5-1.8,0.8-2.9,1v0.5h-0.5v0.5c-2.7,1-4.5,3.4-4.3,6.2
	l0.5-0.5v0.5h-0.5c0.7,5.3,1.2,10.4,1.4,15.4c-1.7,0.3-2.3,1.3-1.9,2.9c-0.8-0.2-1.4,0.1-1.4,1c-1.2,0.6-2.1,1.8-2.4,3.4l0.5,0.5
	l-0.5,1h0.5v0.5c-0.6,0-1.1,0.4-1.4,1l-1-0.5c-0.8,0.6-1.3,1.4-1.4,2.4h-0.5c-0.6,1.9-1.6,3.9-2.9,5.8l1,0.5c-0.3,0-0.6,0-1,0
	c-0.4,0.4-0.6,0.9-0.5,1.4h-0.5c-1.7,3.1-2.8,6.2-3.4,9.6h0.5c0,0.5,0,1,0,1.4h0.5v0.5h0.5c0,0.3,0,0.6,0,1h0.5c0,0.8,0,1.6,0,2.4
	c-0.9,0.1-1.7-0.1-2.4-0.5v-0.5c-0.6,0-1.3,0-1.9,0c0-0.3,0-0.6,0-1h-0.5c-0.6-1.1-1.4-2.3-2.4-3.4c-0.8-0.3-1.3-1-1.4-1.9h-0.5
	c0-0.7-0.3-1-1-1v-0.5c-2.5-1.4-4.9-2-7.7-1.9c-0.1-1.4,0.6-2.6,1.9-3.4c-0.9-0.6-1.2-1.4-1-2.4c0.6,0,1.3,0,1.9,0v-0.5h0.5
	c0,0.3,0,0.6,0,1h0.5v0.5h0.5l-0.5-0.5c0.5,0,1,0,1.4,0c0,0.3,0,0.6,0,1h0.5v-0.5c0.3,0,0.6,0,1,0v1c0.5,0,1,0,1.4,0
	c0-0.5,0-1,0-1.4h0.5c0-0.3,0-0.6,0-1h-0.5v-0.5h0.5c0.2-0.5,0.3-0.9,0.5-1.4h0.5v-0.5h0.5c0-0.5,0-1,0-1.4h0.5v-0.5h0.5v-0.5h0.5
	c0.2-0.5,0.3-0.9,0.5-1.4h0.5c0-0.6,0-1.3,0-1.9h-0.5c0-1.4-0.7-1.8-1.9-1v-0.5h-0.5c0-0.5,0-1,0-1.4h0.5c0,0.3,0,0.6,0,1
	c0.6-0.4,0.8-0.6,1.4-1c-0.3,0-0.6,0-1,0v-0.5h-0.5c-0.1-0.4,0-0.8,0.5-1h-0.5c0.4-0.7,0.6-1.5,0.5-2.4h0.5c0.2-1,0.7-1.2,1.4-0.5
	v-0.5h-0.5c0-0.5,0-1,0-1.4h0.5c0-0.3,0-0.6,0-1h-0.5v-0.5c-0.3,0.6-0.8,0.9-1.4,1c0,0.3,0,0.6,0,1c-0.5,0-1,0-1.4,0v0.5
	c-0.9,0-1.1-0.6-1-1.4h0.5c-0.2-1-0.9-1.6-1.9-1.4v-0.5h0.5v-0.5c0.3,0,0.6,0,1,0c0-0.5,0-1,0-1.4H583c0-0.3,0-0.6,0-1h-0.5
	c0,0.3,0,0.6,0,1c-0.8-0.1-1.4-0.6-1.4-1.4c0.4-0.1,0.8,0,1,0.5v-0.5h0.5c0.1-0.4,0-0.8-0.5-1c0.3,0,0.6,0,1,0v0.5h0.5
	c0,0.3,0,0.6,0,1c0.4-0.2,0.6-0.5,0.5-1c0.3,0,0.6,0,1,0v0.5h0.5v-0.5h-0.5v-0.5h-0.5c0-0.8,0.2-1.3,0.5-1.9h0.5v0.5h0.5
	c0.2,1.1,0,2.1-0.5,2.9h0.5v0.5h-0.5c0.5,0.6,0.8,1.2,1,1.9h0.5c-0.3-1-0.4-1.8-0.5-2.9h0.5c0-0.6,0-1.3,0-1.9h-0.5v-0.5h-0.5
	c0.3-0.6,0.5-1.2,0.5-1.9h0.5v-0.5c-1-0.6-1.3-1.9-1-3.4l0.5,0.5c0-0.6,0-1.3,0-1.9c-0.7,0.8-1.5,1.2-2.4,1.4c0,0.5,0,1,0,1.4h-0.5
	c0-0.6,0-1.3,0-1.9H583c0,0.8,0,1.6,0,2.4h0.5v0.5h0.5c-0.2,0.5-0.3,0.9-0.5,1.4h0.5v0.5c-0.3,0-0.6,0-1,0c0,0.3,0,0.6,0,1h0.5
	c0,0.3,0,0.6,0,1c-0.3,0-0.6,0-1,0c0.1-1.2-0.5-2.1-1.4-2.4v-0.5l-0.5,0.5v-0.5h-0.5v0.5h0.5c-0.2,0.4-0.5,0.6-1,0.5v-0.5h-0.5
	c0,0.3,0,0.6,0,1c-0.6-0.3-1.2-0.5-1.9-0.5c0-0.9-0.6-1.1-1.4-1v0.5c0.5,0.2,0.9,0.3,1.4,0.5v0.5h0.5c-0.2,0.5-0.3,0.9-0.5,1.4
	c0.5,0,1,0,1.4,0c0.3,1,0,1.7-1,1.9c0.2,0.4,0.5,0.6,1,0.5v0.5h-0.5v0.5h-0.5v-0.5c-0.6,0.1-1.1,0-1.4-0.5c-0.4,0.2-0.6,0.5-0.5,1
	h0.5c0,0.5,0,1,0,1.4c1.1-0.1,2,0,2.9,0.5l-0.5,0.5h0.5v0.5c-1.3,0.2-1.8,1.1-1.9,2.4c-0.4-0.2-0.6-0.5-0.5-1
	c-0.8,0.6-1.2,1.4-1,2.4h0.5c-0.6,1.4-0.9,2.7-1,4.3h-0.5l0.5,0.5c-0.4,0.2-0.6,0.5-0.5,1l-0.5-0.5c-0.5,1.5-0.7,3.5-0.5,5.3
	l0.5-0.5v0.5h-0.5c0,0.3,0,0.6,0,1h-0.5c0,0.5,0,1,0,1.4h-0.5v0.5c-0.8,0-1.6,0-2.4,0V483H570v0.5c-0.3,0-0.6,0-1,0c0,0.3,0,0.6,0,1
	c0.3,0,0.6,0,1,0v0.5c0.5,0,1,0,1.4,0c-0.2,0.5-0.3,0.9-0.5,1.4h-0.5c-0.1,0.4,0,0.8,0.5,1c-0.3,0-0.6,0-1,0c0.4,0.2,0.6,0.5,0.5,1
	h0.5v-0.5c0.4,0.2,0.6,0.5,0.5,1h0.5v-0.5h-0.5v-0.5h0.5v-0.5h0.5c0.1-0.6,0-1.1-0.5-1.4l0.5-0.5h-0.5c0-0.3,0-0.6,0-1h-0.5V484
	c0.4,0.1,0.8,0,1-0.5v0.5h0.5c0,0.6,0,1.3,0,1.9h0.5c0,0.5,0,1,0,1.4h0.5c0,0.3,0,0.6,0,1h0.5c0,0.5,0,1,0,1.4h0.5
	c0.3,1,0,1.7-1,1.9c0-0.9-0.6-1.1-1.4-1v-0.5c-2.4,0-4.8,0-7.2,0v0.5c-0.3,0-0.6,0-1,0v0.5c-0.3,0-0.6,0-1,0v0.5h-0.5
	c-15.6,2.5-39.4,4.4-54.2,13v0.5h-0.5v0.5l-0.5-1v0.5h-1.4v0.5c-10.5,2.4-20.9,6.7-30.7,11c-1.9,2.9-4.6,4.7-8.2,5.3v0.5
	c-0.3,0-0.6,0-1,0v0.5c-0.5,0-1,0-1.4,0c-0.1-0.4,0-0.8,0.5-1c-1.8-1.4-2.9-2.9-3.4-4.8h0.5c0-0.3,0-0.6,0-1c0.6,0,1.3,0,1.9,0
	c-0.2,0.6-0.1,1.1,0.5,1.4h-0.5c0-0.7-0.3-1-1-1v0.5h0.5v1c0.6-0.2,1.3-0.3,1.9-0.5c-0.4,0.2-0.6,0.5-0.5,1h-0.5v0.5
	c1.3,0.1,1.7-0.7,1.4-1.9h-0.5c0.4-0.2,0.6-0.5,0.5-1c0.3,0,0.6,0,1,0v0.5h0.5v1h-0.5c0,0.3,0,0.6,0,1h0.5c-0.3-2.7,0.4-5.6,1.9-8.2
	h0.5c0.1-0.4,0-0.8-0.5-1l0.5-0.5h-0.5c0-0.3,0-0.6,0-1c-1.2-0.2-2.3,0-3.4,0.5v0.5h-0.5c0,0.3,0,0.6,0,1h-0.5v-0.5
	c-1.2,0-2.2,0.7-2.9,1.9c-0.4-0.2-0.6-0.5-0.5-1h-0.5c0.3,1.7-0.3,2.6-1.9,2.9v-0.5h-0.5v-0.5c-0.2,0.9-0.6,1.6-1.4,1.9
	c0.2,2.6-0.8,4.5-2.9,5.3c0.2-0.9,0-1.7-0.5-2.4l-0.5,0.5v-0.5c-0.6,0.3-0.9,0.8-1,1.4c-0.7,0-1,0.3-1,1l-1,0.5c0,0.3,0,0.6,0,1
	h-0.5c0-0.3,0-0.6,0-1H450v-0.5c-0.3,0-0.6,0-1,0v0.5l-0.5-0.5c0.4-0.2,0.6-0.5,0.5-1c-0.6,0-1.3,0-1.9,0c0.6,1.4,0.7,3.1,0.5,4.8
	h-0.5c-0.1,0.6,0,1.1,0.5,1.4c0.6-0.3,0.9-0.8,1-1.4c0.3,0,0.6,0,1,0v-0.5c0.4,0.1,0.8,0,1-0.5v0.5c0.7-0.4,1.4-0.6,2.4-0.5l0.5-1
	c0.6-0.1,1.1,0,1.4,0.5l0.5-0.5v0.5c0.5-0.2,0.9-0.3,1.4-0.5v-0.5h0.5v-0.5h-0.5l-0.5,1c0-0.5,0-1,0-1.4c0.7-0.2,1.4,0,1.9,0.5h-0.5
	c0,0.3,0,0.6,0,1h1v-0.5h1v-1c0.5,0,1,0,1.4,0l-0.5-0.5c0.6-0.4,0.8-0.6,1.4-1c0.9,1,1.8,2.1,2.4,3.4h0.5v0.5
	c-6.6-1-13.1,0.9-18.7,4.3v-0.5c-1.8-0.5-3.5-1.2-5.3-1.9c0-0.8-0.2-1.6-0.5-2.4H440c-0.2-1.5-1.1-2.8-2.4-3.4c0,0.3,0,0.6,0,1h-0.5
	V519h-0.5c0,0.3,0,0.6,0,1c-0.6-0.1-1.1,0-1.4,0.5V520h-0.5v0.5c-0.7,0-1-0.3-1-1h-0.5v0.5h-0.5c-0.4-0.9-0.5-1.8-0.5-2.9
	c-0.3,0.7-0.6,1.2-1,1.9v-0.5c-0.7,0.5-1.5,0.9-2.4,1c0.3-1.2,0.1-2.1-1-2.4v0.5h0.5v0.5c-0.3,0-0.6,0-1,0l0.5,1
	c-0.2,0.6-0.5,1.1-1,1.4c0.2,0.4,0.5,0.6,1,0.5v-0.5h0.5c0,0.3,0,0.6,0,1c-1.8,0.2-3.2,0.2-5.3,0v0.5h-0.5v0.5c-0.4,0.1-0.8,0-1-0.5
	c-0.5,0.4-0.6,0.8-0.5,1.4c-0.3,0-0.6,0-1,0v-1c-0.7-0.1-1.3,0.1-1.9,0.5v0.5c-1.8,0.7-2.8,2.6-2.9,4.8c1.9-0.9,4.3-2,6.2-2.9v0.5
	c1.5,0,3.6-0.1,5.3-0.5v-0.5c-0.3,0-0.6,0-1,0c0.7-0.8,1.5-1.3,2.4-1.4v0.5c0.9-0.2,1.6-0.6,1.9-1.4c1.6-0.3,2.6-0.4,4.3-0.5
	c0,0.3,0,0.6,0,1c0.5,0.1,1-0.1,1.4-0.5v0.5c0.9,0,1.1-0.6,1-1.4h0.5l-0.5-0.5v0.5c-0.4-0.1-0.8,0-1,0.5c-0.2-0.4-0.5-0.6-1-0.5
	v-0.5c0.9-0.1,1.5-0.3,2.4-0.5c0-0.7,0.3-1,1-1c1.3,1.4,2,3,1.9,4.8c-9,0.6-17.4,3.8-26.4,5.3v0.5c-9,1.8-18.8,5.1-24.5,12h-0.5
	c0.9-2,0.7-3.5-1.4-4.3v-0.5h-1v-0.5c-3.6-0.1-6.8,0.8-9.6,2.4v0.5c-0.9,0.4-1.8,0.6-2.9,0.5c0.6-1.1,0.9-1.8,1.4-2.9h0.5
	c1.2,1.6,3.1,0.9,5.3-0.5v-0.5c2.2-0.1,4.3-0.3,6.2-0.5c0.3,1.7,1,1.9,1.9,0.5h0.5c-0.5-0.6-1-1.2-1.4-1.9h0.5c0-0.3,0-0.6,0-1
	c0.3,0,0.6,0,1,0c0,0.7,0.3,1,1,1c0-0.3,0-0.6,0-1h-0.5l0.5-1c-0.3,0-0.6,0-1,0v0.5h-0.5v-0.5c-0.3,0-0.6,0-1,0V532c0.3,0,0.6,0,1,0
	v-0.5c0.6-0.5,1.2-1,1.9-1.4v0.5c0.5,0.2,0.9,0.3,1.4,0.5v-0.5c0.3,0,0.6,0,1,0l-0.5-0.5l0.5-0.5c-0.3,0-0.6,0-1,0
	c0.4-0.2,0.6-0.5,0.5-1c1.4-0.9,3.1-1.4,4.8-1.4c0-0.3,0-0.6,0-1h0.5c0-0.5,0-1,0-1.4c-1.1,0.4-2.2,0.7-3.4,1c0-0.8,0.2-1.3,0.5-1.9
	c0.3,0,0.6,0,1,0c0-0.3,0-0.6,0-1c2.3-0.9,4.2-2.4,5.3-4.3h0.5v0.5c0.4,0.1,0.8,0,1-0.5c0,0.5,0,1,0,1.4h0.5c-0.1-0.4,0-0.8,0.5-1
	v0.5h0.5c0-0.5,0-1,0-1.4h-0.5c0-0.8,0.5-1.2,1.4-1c0,0.6,0,1.3,0,1.9h0.5v-0.5h0.5v-0.5h-0.5v-0.5h0.5v-0.5h-0.5
	c-0.2-0.5-0.3-0.9-0.5-1.4h0.5c-0.1-1,0.4-1.7,1.4-1.9c-1.3-0.2-2.2-1.1-2.4-2.4h0.5c0-0.5,0-1,0-1.4h0.5c0-0.7-0.3-1-1-1
	c0-0.3,0-0.6,0-1h-0.5l-0.5-1l0.5-0.5l-0.5-0.5v0.5c-0.5-0.5-1.2-0.7-1.9-0.5c-1.6-6.3-0.3-11.8,1.4-17.8h0.5
	c-1.2-2.4-2.1-5.4-2.4-8.2c-2-0.1-3.1-1.5-3.4-3.4h-0.5c0.4-2.3,0.5-4.6,0-6.7h-0.5c0-1.1,0-2.2,0-3.4h0.5c0-0.5,0-1,0-1.4h0.5v-0.5
	c3.8,0.3,7.4-1.3,9.6-4.3c3.1-2.1,6.3-1.8,9.1,1v-0.5c1.2-0.3,2,0,2.4,1c0.9,0.1,1.7,0,2.4-0.5c1.9-38.9,5.5-79.4,4.3-118.6h0.5
	c-1.6-81.9-1.1-163.8-3.4-245.8c-0.5-19.3-0.9-39.5-1-59c73.3-9,149.8-4.9,223.2-7.7c0,30.1,0,60.2,0,90.2c7.9-1.7,15.1-2.9,23-3.8
	C668.4,118.2,668.3,119.6,668.4,121.1z M610.8,412.9h-0.5c0,0.8,0.2,1.3,0.5,1.9h-0.5l0.5,0.5h-0.5c0,0.5,0,1,0,1.4h0.5
	c0-0.3,0-0.6,0-1c0.3,0,0.6,0,1,0v-0.5c-0.3,0-0.6,0-1,0v-0.5h0.5C610.8,414.4,610.6,413.7,610.8,412.9z M605.5,356.8l-0.5,0.5h0.5
	V356.8z"/>
<path id="path23_1_" class="st0" d="M651.8,395c-0.4,0.5-0.8,0.6-1.4,0.5v0.5h-0.5c0,0.3,0,0.6,0,1h-0.5v0.5h0.5v-0.5h0.5v-0.5h0.5
	v-0.5h0.5v-0.5h0.5V395z M651.3,349.4v-0.5h0.5v0.5c0.5,0,1,0,1.4,0v0.5c0.5,0,1,0,1.4,0v0.5h0.5v0.5h0.5v0.5h0.5c0,1.3,0,2.6,0,3.8
	h0.5c0,0.5,0,1,0,1.4h0.5c0.3,1.8,0.4,3.3,0.5,5.3h0.5c0.6,3.9-0.4,7.5-2.9,10.6h0.5c-0.3,2.2,0.3,5,1.4,7.2h-0.5
	c0.5,0.8,0.7,1.8,0.5,2.9h0.5v0.5H657c0,0.8,0,1.6,0,2.4h-0.5c0,0.8,0,1.6,0,2.4h-0.5c-0.3,1-0.6,1.9-1,2.9h-0.5
	c0.4,0.2,0.6,0.5,0.5,1h-0.5c0.2,1.1,0.5,2,1,2.9c0.9,0.2,1.8,0.1,2.4-0.5c1,0.9,1.3,2,1,3.4h-0.5c0.1,1.1-0.2,2-1,2.9
	c-0.5,0.2-0.9,0.3-1.4,0.5v0.5h-0.5c-0.2,0.5-0.3,0.9-0.5,1.4h-0.5c0,0.5,0,1,0,1.4h-0.5c0.4,0.2,0.6,0.5,0.5,1h-0.5
	c0,0.3,0,0.6,0,1h0.5c0.2,1.1,0.5,2,1,2.9h0.5c0,0.3,0,0.6,0,1h0.5c0,0.3,0,0.6,0,1h0.5v0.5h0.5v0.5h0.5c-0.4,0.2-0.6,0.5-0.5,1h0.5
	c0,0.3,0,0.6,0,1h-0.5v0.5h0.5v0.5h0.5v0.5c0.5,0,1,0,1.4,0v0.5c0.3,0,0.6,0,1,0c0,0.3,0,0.6,0,1h-0.5v0.5c-0.3,0-0.6,0-1,0v-0.5
	H659v0.5h0.5c0,0.3,0,0.6,0,1H659v0.5c-0.3,0-0.6,0-1,0c0-0.3,0-0.6,0-1h-0.5c0.1,0.4,0,0.8-0.5,1V418h-0.5v-0.5h0.5V417h-0.5
	c-0.2,0.5-0.3,0.9-0.5,1.4c-0.6-0.1-1.1,0-1.4,0.5v-0.5c-0.3,0-0.6,0-1,0V418c-0.5,0-1,0-1.4,0v-0.5c-0.2,0.4-0.5,0.6-1,0.5
	c0,0.8,0,1.6,0,2.4c-0.9,0.2-1.7,0-2.4-0.5h0.5c0-0.3,0-0.6,0-1h-0.5c0-0.6,0-1.3,0-1.9c-0.4,0.1-0.8,0-1-0.5h0.5v-0.5h-0.5v-0.5
	h0.5c-0.3-2-1.2-4-2.4-5.3c0.4-0.9,0.6-1.8,0.5-2.9H646V407c-0.4,0.5-0.8,0.6-1.4,0.5c-0.1-0.6,0-1.1,0.5-1.4h-0.5c0-0.3,0-0.6,0-1
	h-0.5v-0.5h0.5c0.2-1.8,0.6-3.3,1.4-4.8c0.9-0.2,1.7-1,1.9-1.9h-0.5v-0.5c-0.7,0-1-0.3-1-1H646v-0.5h-0.5c-5-4.3-6.1-10.7-3.8-16.8
	h0.5l-0.5-0.5h0.5c0.2-0.9,0.3-1.5,0.5-2.4h0.5c0.3-0.6,0.5-1.2,0.5-1.9h0.5c-0.4-3.7-0.4-7.6,0-11.5h0.5c-0.4-1.6-0.1-2.7,1.4-2.9
	v-0.5h0.5c-0.1-1.6,0.1-3,0.5-4.3h0.5c0-0.5,0-1,0-1.4h0.5c0.2-0.5,0.3-0.9,0.5-1.4h0.5c0-0.3,0-0.6,0-1h0.5v-0.5h0.5v-0.5h0.5
	C650.3,349.7,650.6,349.3,651.3,349.4z M651.8,395.9h-0.5v0.5L651.8,395.9z"/>
<path id="path27_1_" class="st0" d="M731.2,293.6h-0.5c-0.2-0.8,0.1-1.4,1-1.4c0-0.3,0-0.6,0-1h0.5v-0.5h0.5c0-0.3,0-0.6,0-1
	c0.3,0,0.6,0,1,0v0.5h-0.5c-0.6,1.6-0.6,3.3,0,4.8c0.3,0,0.6,0,1,0c-0.1,0.4,0,0.8,0.5,1h-0.5c-0.3,2.4,0.4,4.3,2.4,4.8v0.5
	c-0.5,0-1,0-1.4,0v0.5h-0.5v0.5c-0.4-0.1-0.8,0-1,0.5h0.5c0,1.4,0,2.9,0,4.3c-0.3,0-0.6,0-1,0c0-0.6,0-1.3,0-1.9h-0.5
	c-0.3-1.2-0.6-2.2-1-3.4c-0.6,0.3-1.2,0.5-1.9,0.5l0.5-0.5c-1.2-0.2-2.1,0.3-2.4,1.4h0.5v-0.5h0.5c-0.1,0.8-0.6,1.4-1.4,1.4
	c0,0.3,0,0.6,0,1h-0.5c0,0.3,0,0.6,0,1c-0.6-0.2-1.1-0.1-1.4,0.5v-0.5l-0.5,0.5l0.5,0.5H725c0,0.3,0,0.6,0,1l-0.5-0.5v0.5
	c0.3,0,0.6,0,1,0v-0.5c0.5-0.2,0.9-0.3,1.4-0.5c0,0.3,0,0.6,0,1c-0.5,0-1,0-1.4,0v0.5c0.3,0,0.6,0,1,0v0.5c-0.4-0.1-0.8,0-1,0.5
	c0.6,0.3,1.2,0.5,1.9,0.5c0.1-0.4,0-0.8-0.5-1h0.5v-0.5h0.5V308c0.3,0,0.6,0,1,0v0.5h-0.5c0,0.5,0,1,0,1.4h0.5c0,0.5,0,1,0,1.4h0.5
	v-0.5c0.3,0,0.6,0,1,0v0.5c0.5,0,1,0,1.4,0c0-0.5,0-1,0-1.4h0.5v-0.5h0.5c-0.2-0.8,0.1-1.4,1-1.4c0.2,0.5,0.3,0.9,0.5,1.4
	c-0.3,0-0.6,0-1,0c0,0.6,0,1.3,0,1.9h-0.5v0.5h-0.5v0.5c-0.6,0-1.3,0-1.9,0v0.5c-2.8,0-5.3,0.5-7.7,1.4v0.5h-0.5c0,1.6,0,3.2,0,4.8
	h-0.5c0.2,1.3,0.3,2.1,0.5,3.4h-0.5c0.2,0.5,0.3,0.9,0.5,1.4h-0.5c0,0.5,0,1,0,1.4h-0.5c0.2,2,0,4.1-0.5,5.8h0.5v0.5h-0.5
	c-0.3,3,0,6.1,1,8.6h0.5c2.8,5.1,3.1,11.9,1.4,17.8h0.5c0,0.3,0,0.6,0,1h-0.5v0.5h0.5c-0.1,0.9,0.1,1.7,0.5,2.4c0.3,0,0.6,0,1,0v0.5
	h0.5c0,0.5,0,1,0,1.4h-0.5c0,0.5,0,1,0,1.4H725c0,3.4-0.1,6.4-0.5,9.6h0.5c-0.3,1,0,1.7,1,1.9v0.5h0.5v0.5h0.5v0.5
	c0.6,0,1.3,0,1.9,0v0.5h-0.5c0,0.7,0.3,1,1,1v0.5h-0.5c0,0.5,0,1,0,1.4h-0.5c0.5,0.5,0.7,1.2,0.5,1.9h-0.5c0,0.5,0,1,0,1.4h-0.5
	c0,0.5,0,1,0,1.4l-0.5-0.5c0,0.5,0,1,0,1.4h-0.5c-0.4,1.2-0.5,2-0.5,3.4l-0.5-0.5c-0.7,1.7-1.4,3.2-2.4,4.8h-0.5
	c-0.7,0.7-0.7,1.4,0,1.9c-4.7,6.2-6,11.5,1.4,13c-0.1,2.9-0.9,5.8-2.4,8.2v-0.5c-1.1,1.1-2.4,2.1-3.8,2.4c0.4-2.3,0.9-4.5,1.4-6.7
	c-3.1-3.2-7-5.1-11.5-5.3c-0.2,1.9-0.9,3.7-1.9,5.3l-0.5-0.5l-1,1.4h-0.5v0.5h-1.4c0-1.3-0.4-2.4-1.4-2.9c0-0.3,0-0.6,0-1H701
	c-2.5-3.6-5.7-3.3-9.1,0c0.9,2.5,0.7,5.3-0.5,7.7l0.5,0.5l-0.5,1c1.5,1.8,1.1,3.2-1.4,3.8c-1,1.3-1.5,2.8-1.4,4.3l1,0.5
	c-0.8,1.8-1.5,3.5-2.4,5.3v-0.5l-1,1.4l-0.5-0.5l-1.4,1v-0.5h-0.5l0.5-2.9l-1.9-1v1c-0.4,0.4-0.9,0.6-1.4,0.5
	c-0.2-0.8-0.8-1.7-1.4-2.4l0.5-1c-1.5-0.4-2.8-0.1-3.8,1c0.1,1-0.4,1.8-1.4,2.4h-0.5l-0.5,1.9l-1-0.5v-1.4c-0.5,0.3-0.7,0.8-0.5,1.4
	c-0.4-0.4-0.6-0.9-0.5-1.4h-0.5l-0.5-1l-0.5,0.5l-0.5-0.5l-1.4,0.5l1,0.5v0.5l0.5-0.5c0.6,0.2,1.1,0.5,1.4,1l-0.5,0.5l0.5,0.5
	l-0.5,0.5c0.2,0.4,0.5,0.6,1,0.5v1c-0.6-0.2-1.1-0.1-1.4,0.5l-0.5-1l0.5-1l-1.4-1v-0.5l-0.5,0.5v-0.5l-1,0.5v-1.4l-0.5,1.4
	c-1.8,0.1-3.5,0.8-4.8,1.9v0.5l-1,0.5c-1.5-2.2-2.4-4.9-2.4-7.7l-1-0.5l-0.5,0.5v-0.5h-0.5c0-1.4,0.3-2.7,1-3.8v0.5h0.5
	c0,0.5,0,1,0,1.4h0.5c0.2-0.9,0.3-1.5,0.5-2.4h0.5v-0.5h0.5v-0.5h0.5v-0.5c0.7,0,1-0.3,1-1h0.5v-0.5c1.1-0.1,1.9-0.2,2.9-0.5
	c0.2-0.5,0.3-0.9,0.5-1.4h0.5v-0.5h0.5v-0.5h0.5c0-0.7,0.3-1,1-1c0.1-1,0.6-1.7,1.4-1.9c0.4-0.7,0.6-1.5,0.5-2.4c0.3,0,0.6,0,1,0
	l-0.5,0.5h0.5c0,0.7,0.3,1,1,1c0,1,0,1.9,0,2.9l-1,0.5c-0.2,1.5-0.3,2.6-0.5,3.8l0.5,0.5c0.5-0.9,1.1-1.6,1.9-1.9v0.5l2.4-1.9v-0.5
	c1.4-0.1,2.4-1,2.9-2.4v1c1.2-0.6,2.5-0.9,3.8-1c-0.5-0.6-0.6-1.3,0-1.9h-0.5c0.4-0.2,0.6-0.5,0.5-1h-1l1-0.5c0-0.3,0-0.6,0-1h-0.5
	c-0.1-0.4,0-0.8,0.5-1c-0.3,0-0.6,0-1,0v-0.5c0.4,0.1,0.8,0,1-0.5h-1v-0.5h0.5c0.1-0.7-0.1-1.3-0.5-1.9c-0.4,0.2-0.6,0.5-0.5,1h-0.5
	v-0.5l-0.5,0.5v-0.5h-1v-0.5h0.5v-0.5h-0.5v0.5c-0.4-0.4-0.6-0.9-0.5-1.4h0.5v-0.5h0.5c-0.2-2.1-0.3-3.7-0.5-5.8H678l0.5-0.5
	l-0.5-3.4c-0.4,0.1-0.8,0-1-0.5c0.2-0.4,0.5-0.6,1-0.5c-0.3-1.1,0-1.9,1-2.4c-0.8-0.3-1.1-0.8-1-1.4h0.5c0-0.5,0-1,0-1.4H678
	l0.5-0.5c-0.4-0.4-0.6-0.9-0.5-1.4c-0.3,0-0.6,0-1,0v-0.5c-0.5,0-1,0-1.4,0v-0.5c-0.5,0-1,0-1.4,0v0.5h-0.5v-0.5
	c1.2-0.7,2.7-1.9,3.8-2.9l5.8,1.4l0.5-0.5l-0.5-0.5c0.3,0,0.6,0,1,0v-0.5h-0.5c0.1-1.2,0-2.4-0.5-3.4l-1-0.5l1.4-0.5l-0.5-1.4
	c-1,0.1-1.9,0.2-2.9,0.5v-0.5l2.4-0.5v-0.5h0.5c0-1.1,0-2.2,0-3.4l0.5,0.5c0.4-0.2,0.6-0.5,0.5-1h0.5c1-1.2,1.5-2.6,1.4-4.3h-0.5
	v-0.5c-0.2-3.8,1.4-9.3,3.8-13.4h0.5c1.4-2.1,2.5-4.1,3.4-6.2c4.7-1.5,6.2-4.7,3.8-8.6c-0.2-1.8,0-3.7,0.5-5.3
	c0.5,0.4,0.6,0.8,0.5,1.4c0.9,0,1.1-0.6,1-1.4h0.5c-0.3-1.1-1-1.1-1.9-0.5c0-0.3,0-0.6,0-1c1.2,0.1,2.4,0,3.4-0.5
	c0.3-1.8,0.6-3.1,1-4.8h0.5c1-2.4,2-4.9,2.9-7.2c-0.7-0.8-0.7-1.9,0-2.9c-0.4-0.2-0.6-0.5-0.5-1h-0.5c0.1-0.4,0-0.8-0.5-1l0.5-0.5
	h-0.5c0.2-0.6,0.1-1.1-0.5-1.4c0.4-0.2,0.6-0.5,0.5-1h0.5c0.6-2,2.1-3,4.3-2.9v0.5h-0.5c0.3,0.7,0.6,1.2,1,1.9
	c0.6-0.8,0.3-1.7-0.5-2.4c0.2-0.4,0.5-0.6,1-0.5v-0.5h0.5v-0.5h0.5c0.7-1.1,1-2.4,1-3.8h0.5c0.2-0.6,0.5-1.3,1-1.9h1v-0.5
	c0.5-0.2,0.9-0.3,1.4-0.5v-0.5h-0.5v-0.5c1.7-1.1,3.5-1.3,4.8,0c0.5,0,1,0,1.4,0c-0.2,0.4-0.5,0.6-1,0.5v0.5c-0.3,0-0.6,0-1,0
	c0.2,0.5,0.3,0.9,0.5,1.4h-0.5c0,1.3,0.1,2.3,0.5,3.4h0.5c0-1.3,0.1-2.3,0.5-3.4h0.5v-0.5c0.7,0,1-0.3,1-1c-0.4,0.1-0.8,0-1-0.5h0.5
	c0.1-0.4,0-0.8-0.5-1c2.2,0.4,3.9-0.2,4.8-1.9h0.5c0-0.6,0-1.3,0-1.9c1.2-0.3,2.3-0.8,3.4-1.4c0.2-0.5,0.3-0.9,0.5-1.4h0.5v-0.5h0.5
	V293.6z"/>
<path id="path51_1_" class="st0" d="M699.6,215.6c14.7,5.5,22.2,23.8,30.2,36c-0.3,2.1-1.5,3.7-3.4,4.3c-0.8,2.2-2.8,3.9-5.3,4.8
	l-1-0.5h0.5l-0.5-1c0.9-1.3,0.8-2.4-0.5-2.9l1-0.5c1.1,0.2,1.9,0.6,2.4,1.4h0.5c0-0.5,0-1,0-1.4c-0.8,0-1.6,0-2.4,0l-0.5-1
	c0.7-2.4,0.5-5.1-0.5-7.7l-0.5,1c-1.4-0.6-2.7-1.4-3.8-2.4c0-0.6,0-1.3,0-1.9c-0.7,0.4-0.8,1.1-0.5,1.9l-1.4,0.5
	c-0.6-1.5-1.3-3.2-1.9-4.8l0.5-1c-0.4,1.2-1.2,1.8-2.4,1.9l-0.5-1.9c0.5-0.4,0.8-0.9,1-1.4l-1,0.5l0.5-1.4c-1.8-2.7-1.3-5.2,1.4-7.2
	v-1.4h0.5l-1-1l-0.5,0.5l0.5,1.4c-2.7,2.9-3.3,6-2.4,9.6l0.5,0.5l-0.5,1.4c0.9,0.6,1.4,1.4,1.4,2.4h0.5c0.2,0.6,0.5,1.1,1,1.4
	c-0.3,2.1,0.4,4.1,1.9,5.8l1,0.5c0.6,1.6,1.7,3.2,2.9,4.3c-0.3,1.5,0.3,2.2,1.9,1.9c-0.1,0.9-0.4,1.8-1,2.4l0.5,0.5l0.5-1
	c1.8,7.6,8.1,16.7,2.4,23c-0.2-0.8-0.6-1.3-1.4-1.4c-5.7,4.1-7.2,10.7-8.2,17.8h-0.5v0.5c-1.6,0.1-3.1-0.4-4.3-1.4
	c-1.4-3.7-1.5-7-0.5-10.6l-1-0.5l0.5-0.5c-0.7,0.1-1.3-0.1-1.9-0.5c0-0.7-0.3-1-1-1l0.5-0.5c-0.5-0.4-0.8-0.9-1-1.4
	c-0.5-0.2-0.9-0.3-1.4-0.5v-0.5h0.5c-0.3-0.3-0.6-0.6-1-1l0.5-0.5H701c0.1-0.4,0-0.8-0.5-1h0.5v-0.5h-0.5c0-0.3,0-0.6,0-1h-0.5
	c0.7-1.7,0.7-3.7,0-5.3l-0.5,0.5c-0.5-1.1-1.4-2-2.4-2.4l-0.5,1.4h-1v2.4h0.5c0.2,2.1,0.1,4.2-0.5,6.2h0.5c-0.5,2.2-1.4,4.1-2.9,5.8
	l-1-1.4c-1.4,2.6-2.2,5.8-2.4,9.1c-3.9-7-4.3-15.5-1.9-23.5c3,0.4,5-1.8,5.8-5.3l-0.5-1c1.1-5.1,1.4-10,1-15.4
	c5.3-5.4,1.9-12.5,2.4-19.7c2,1.7,3.7,3.5,5.3,5.8l1-1c-1-1-1.9-1.9-2.9-2.9l0.5-1.4l-1-1.4l1.4-1.9l-1.4-0.5
	c-0.6-1.3-0.4-2.2,0.5-2.9l-0.5-1l0.5-1h-1.4c0.6-1.1,0.7-2.5,0.5-3.8h-0.5l0.5-1l0.5,0.5c-0.8-1-1.2-2.1-1.4-3.4
	C698.8,215,699,215.2,699.6,215.6z"/>
<path id="path37_1_" class="st0" d="M772.1,413.6c-0.3,0-0.6,0-1,0c0.2,0.4,0.5,0.6,1,0.5V413.6z M740.5,342c-0.7,0-1,0.3-1,1H739
	v0.5h0.5v0.5h0.5c0,0.3,0,0.6,0,1h0.5v-0.5c0.8,0,1.6,0,2.4,0v-0.5c-0.8,0-1.6,0-2.4,0v-0.5H740V343h-0.5c0.2-0.4,0.5-0.6,1-0.5V342
	z M741.4,332.9h-0.5v0.5L741.4,332.9z M743.3,344.9h-0.5c0,0.3,0,0.6,0,1h0.5C743.3,345.5,743.3,345.2,743.3,344.9z M744.8,276.3
	v-0.5c3.4,0.9,6.9,1.9,10.6,2.9c0,0.8,0,1.6,0,2.4c7.8,1.5,15.4,3.4,23,5.3c0,0.3,0,0.6,0,1h0.5c-1.7,19.5-3.3,29.2,0.5,47.5
	c4.4,21.1,5.2,44.8,6.2,66.2h-0.5c0-0.3,0-0.6,0-1h-0.5c0-0.3,0-0.6,0-1h-0.5c0-0.5,0-1,0-1.4h-0.5c0-0.3,0-0.6,0-1h-0.5
	c0-0.8,0-1.6,0-2.4h-0.5c0-0.3,0-0.6,0-1h-0.5v0.5c-0.2-0.4-0.5-0.6-1-0.5v-0.5h0.5c0-0.6,0-1.3,0-1.9h-0.5c0,0.5,0,1,0,1.4
	c-0.5-0.2-0.9-0.3-1.4-0.5c0-0.3,0-0.6,0-1h-0.5v-0.5h-0.5c0-0.3,0-0.6,0-1h-0.5v-0.5h-0.5v-0.5h-0.5c0.1-0.8-0.2-1.5-1-1.9
	c0,0.6,0,1.3,0,1.9h0.5c0,1.1,0,2.2,0,3.4h0.5c-0.2,2.4,0,5.1,0.5,7.2h0.5c0,1,0,1.9,0,2.9h0.5c0,0.5,0,1,0,1.4c0.3,0,0.6,0,1,0V403
	h0.5v-0.5h0.5V402h0.5v-0.5h0.5v-0.5h0.5v0.5h0.5c0,0.6,0,1.3,0,1.9c-0.6,0-1.3,0-1.9,0v0.5c-0.5,0-1,0-1.4,0v0.5c-0.3,0-0.6,0-1,0
	v0.5h-0.5c0-0.3,0-0.6,0-1c-0.3,0-0.6,0-1,0v-0.5h-0.5V403H776v-0.5h-0.5c0-0.3,0-0.6,0-1H775v-0.5c-0.5,0-1,0-1.4,0
	c0,0.3,0,0.6,0,1h0.5c0,0.5,0,1,0,1.4h0.5v0.5h0.5v0.5h0.5v0.5h0.5c0,0.6,0,1.3,0,1.9h-0.5v0.5H775v0.5h-0.5c0.2,1.9,0.5,3.4,1,5.3
	H775v0.5h-0.5v0.5c-0.5,0.2-0.9,0.3-1.4,0.5V414c-0.3,0-0.6,0-1,0v0.5h-0.5c0,0.8,0.2,1.3,0.5,1.9h-0.5v0.5c-0.3,0-0.6,0-1,0v0.5
	c-0.6,0-1.1,0.4-1.4,1c-1.6-0.5-3.6-0.3-5.3,0.5v0.5h-0.5v0.5H763c0,0.5,0,1,0,1.4c-0.6-0.1-1.1,0-1.4,0.5v-0.5
	c-0.4-0.1-0.8,0-1,0.5v-0.5h-0.5c0,0.3,0,0.6,0,1c-0.9,0-1.1,0.6-1,1.4h-0.5c0,0.3,0,0.6,0,1h0.5c0,1.1,0,2.2,0,3.4h0.5
	c0,0.3,0,0.6,0,1h-0.5v0.5c-1.1-0.4-2.1-0.5-3.4-0.5c0,0.3,0,0.6,0,1h-0.5c0-0.3,0-0.6,0-1c-0.5,0-1,0-1.4,0v0.5h-0.5v0.5h-0.5v-0.5
	c-0.8,0-1.6,0-2.4,0v0.5c-0.5,0.2-0.9,0.3-1.4,0.5v0.5c-1.2-0.3-2,0-2.4,1h-0.5c0,0.3,0,0.6,0,1h-0.5c0,0.5,0,1,0,1.4h-0.5
	c0.6-1.6,0.6-3.3,0-4.8h-0.5c0-1.1,0-2.2,0-3.4h0.5v0.5h0.5v0.5c1.3,0.1,1.7-0.7,1.4-1.9h-0.5c0.1-2.7,0.4-5.2,1-7.7h0.5
	c0-0.8,0-1.6,0-2.4h-0.5c0.4-1.4,0.5-2.5,0-3.8c-0.6-0.3-1.3-0.7-1.9-1v-0.5h-0.5c0-0.3,0-0.6,0-1h-0.5v-0.5h-0.5v-0.5h-0.5v-0.5
	h-0.5c0-1,0-1.9,0-2.9h-0.5c0-0.3,0-0.6,0-1h-0.5V403h-0.5v-0.5h-0.5V402c-0.6,0-1.3,0-1.9,0c0-0.6,0-1.3,0-1.9h0.5
	c0-1.1,0-2.2,0-3.4h0.5c0.3-0.6,0.5-1.2,0.5-1.9h0.5c-0.3-1.3,0-2.4,1-2.9c0-0.6,0-1.3,0-1.9h-0.5c-0.1-0.8-0.6-1.4-1.4-1.4
	c-0.4-0.7-0.6-1.5-0.5-2.4h0.5c0.1-0.9-0.1-1.7-0.5-2.4h-0.5c0-0.3,0-0.6,0-1H739v-0.5h-0.5c-0.2-2.6,0-4.9,0.5-7.7h0.5
	c0-0.5,0-1,0-1.4h0.5c0-1.2-0.1-2.3-0.5-3.4c-0.3,0-0.6,0-1,0v-0.5c-0.3,0-0.6,0-1,0v-0.5c-0.3,0-0.6,0-1,0v-0.5c-0.5,0-1,0-1.4,0
	V368h-0.5v-0.5c-0.7,0-1-0.3-1-1h0.5c-0.2-1.5,0-3.1,0.5-4.3h0.5v-0.5h0.5v-0.5h-0.5c-0.2-0.5-0.3-0.9-0.5-1.4h-0.5v-0.5
	c0.6,0,1.3,0,1.9,0c0,0.8,0.2,1.3,0.5,1.9c0.5-0.4,0.6-0.8,0.5-1.4h-0.5v-0.5h0.5c0-2.1,0-4.2,0-6.2h0.5l-0.5-0.5h0.5l-0.5-0.5h0.5
	c0.7-2,0.7-4.3,0-6.2h0.5c0-1.1,0-2.2,0-3.4c-0.3,0-0.6,0-1,0V342c-0.5,0-1,0-1.4,0v-0.5h-0.5v-0.5h-0.5c0-0.7,0.3-1,1-1v-0.5h-0.5
	v-0.5h-0.5v-0.5h0.5v-0.5h0.5v-0.5h0.5v-0.5h0.5v-0.5h0.5c0-0.6,0-1.3,0-1.9h0.5v0.5c0.3,0,0.6,0,1,0c-0.1-0.4,0-0.8,0.5-1
	c-0.7-0.2-1.4,0-1.9,0.5c0-1.4,0.7-1.8,1.9-1c0.2-0.4,0.5-0.6,1-0.5c0-0.7,0.3-1,1-1c-0.4-0.2-0.6-0.5-0.5-1H740c0-0.3,0-0.6,0-1
	h-0.5V330c-0.9,0-1.1-0.6-1-1.4h-0.5v-0.5h-0.5c0-0.3,0-0.6,0-1h-0.5c0-0.3,0-0.6,0-1h-0.5c-0.3-1.9-0.6-3.4-1-5.3h0.5
	c0-0.6,0-1.3,0-1.9h-0.5c0.5-0.8,0.7-1.8,0.5-2.9c0.5,0,1,0,1.4,0v0.5h0.5v0.5h0.5c0,1.3,0.3,2.3,1,3.4h0.5c0.3,0.6,0.5,1.2,0.5,1.9
	h0.5c0,0.5,0,1,0,1.4h0.5c0,0.5,0,1,0,1.4h0.5c0,0.3,0,0.6,0,1h0.5v0.5c0.7,0.2,1.2,0.7,1.4,1.4c0-0.3,0-0.6,0-1h0.5
	c0-0.3,0-0.6,0-1h0.5v-0.5h-0.5c0-0.6,0-1.3,0-1.9h0.5v0.5h0.5c-0.3-0.8-0.6-1.6-1-2.4c-0.3,0-0.6,0-1,0c0-0.3,0-0.6,0-1h0.5
	c-0.8-0.6-1.2-1.4-1-2.4h-0.5c-0.3-1-1.2-1.5-2.4-1.4v-0.5c-0.8,0-1.3-0.2-1.9-0.5v-0.5c-0.3,0-0.6,0-1,0v-0.5h-0.5
	c-0.4-0.7-0.6-1.5-0.5-2.4h-0.5v-0.5h-0.5v-0.5c-0.3,0-0.6,0-1,0c0-0.7,0.3-1,1-1c1.1-2.8,1.5-5.5,1.4-8.6c-0.6,0.1-1.1,0-1.4-0.5h1
	c0-0.3,0-0.6,0-1h0.5c-0.1-1.9,0.2-3.6,1-5.3h0.5v-1h0.5c0.1-3,0.7-6.1,1.9-8.6h0.5C742.5,282.9,743.9,279.5,744.8,276.3z
	 M741.9,333.9c-0.6,0-1.3,0-1.9,0c0,0.3,0,0.6,0,1c0.3,0,0.6,0,1,0c-0.1-0.4,0-0.8,0.5-1v0.5h0.5V333.9z M761.1,412.6h-0.5
	c0,1,0,1.9,0,2.9c-0.3,0-0.6,0-1,0V415c-0.5,0-1,0-1.4,0c0,0.8,0,1.6,0,2.4h0.5c0,0.8,0,1.6,0,2.4h0.5v0.5h-0.5c0,0.5,0,1,0,1.4h0.5
	v-0.5c0.3,0,0.6,0,1,0l-0.5-0.5c1,0,1.9,0,2.9,0c0-0.3,0-0.6,0-1h0.5v-0.5h0.5c0.2-0.5,0.3-0.9,0.5-1.4h0.5v-0.5c0.3,0,0.6,0,1,0
	c-0.4-0.2-0.6-0.5-0.5-1h-0.5V416H764c0-0.7-0.3-1-1-1v-0.5h-0.5V414h-0.5v-0.5h-0.5v-0.5h-0.5V412.6z"/>
<path id="path53_1_" class="st0" d="M664.7,284.7c-0.4,0.1-0.8,0-1-0.5h0.5v-0.5c0.6-0.3,1.2-0.5,1.9-0.5c0,1.1,0,2.2,0,3.4h0.5
	c0.4,1.1,1.3,1.8,2.4,1.9v0.5h0.5c-0.1,0.4,0,0.8,0.5,1c-1,1.5-1.2,3.1-0.5,4.8c0.8,0.3,1.3,1,1.4,1.9h0.5c0.5,1.3,0.8,2.4,1,3.8
	c-0.6,0.3-1.2,0.5-1.9,0.5c0.2-0.4,0.5-0.6,1-0.5c0.1-0.9-0.1-1.7-0.5-2.4h-0.5c0.4-0.2,0.6-0.5,0.5-1c-0.5,0-1,0-1.4,0
	c0,0.3,0,0.6,0,1H669v0.5c-1.4-0.1-2.3,0.6-2.9,1.9c0.4,0.6,0.5,1.2,0.5,1.9c0.6,0,1.3,0,1.9,0c0,0.5,0,1,0,1.4
	c0.7,0.4,1.7,1,2.4,1.4c1.4,1.7,3.7,2.7,6.2,2.9v0.5c1.3,0,2.6,0,3.8,0v0.5h0.5v0.5h0.5c0.1,0.8,0.6,1.4,1.4,1.4v0.5
	c3.6,2.2,5.1,6.4,4.3,11c-0.2,1.6,0.1,2.9,1,4.3c-0.3,0-0.6,0-1,0v0.5h-0.5c-0.3,1.9-0.7,3.5-1.4,5.3h-0.5c0,0.3,0,0.6,0,1h-0.5
	c0,0.3,0,0.6,0,1h-0.5c-0.5,1.8-1.1,3.4-1.9,5.3H682c-0.3,1-0.6,1.9-1,2.9h-0.5v0.5c-0.3,0-0.6,0-1,0v0.5h-0.5v0.5c-0.3,0-0.6,0-1,0
	v0.5c-0.7,0-1,0.3-1,1h-0.5v0.5c-1.3,0.2-2.5-0.2-3.4-1c-0.8-1.3-1.7-3-2.4-4.3h-0.5c0-0.8,0-1.6,0-2.4H670l0.5-0.5
	c-0.5-0.9-0.7-2.2-0.5-3.4h0.5l-0.5-0.5h0.5c0-0.5,0-1,0-1.4h0.5c0-0.6,0-1.3,0-1.9h0.5c0-1,0-1.9,0-2.9h0.5c0.1-0.4,0-0.8-0.5-1
	h0.5v-0.5c0.3,0,0.6,0,1,0c0-0.7,0.3-1,1-1c0.3-1.6,0.4-2.6,0.5-4.3h0.5v-0.5h0.5c0.4-2.6,0.7-5,1-7.7h-0.5v-0.5h-0.5
	c-0.1-0.8-0.6-1.4-1.4-1.4v-0.5h-0.5v-0.5c-2.7-1.6-6-2.2-8.6-1.4c-0.2-0.4-0.5-0.6-1-0.5c-0.2-0.9-0.7-1.4-1.4-1.4
	c-0.5-2.7-0.8-5.1-1-7.7h0.5c0.3-1,0-1.7-1-1.9v-0.5h0.5c0-0.3,0-0.6,0-1c1.3,0.2,2.1,0.3,3.4,0.5c0-0.3,0-0.6,0-1h-0.5v-0.5h-0.5
	c0-0.8,0.2-1.3,0.5-1.9h0.5c0.2,0.5,0.3,0.9,0.5,1.4h0.5c-0.4,0.2-0.6,0.5-0.5,1h0.5v0.5h0.5c0-0.6,0-1.3,0-1.9h-0.5
	c0.4-0.2,0.6-0.5,0.5-1c0.3,0,0.6,0,1,0v-0.5h-0.5v-0.5h-0.5v-0.5c-0.8,0.2-1.4-0.1-1.4-1c-1.5,0.2-2.2-0.5-2.4-1.9h0.5l-0.5-0.5
	C664,287.7,664.8,286.5,664.7,284.7z"/>
<g>
	<path id="path21_2_" class="st0" d="M640.7,408v-0.5c0.3,0,0.6,0,1,0v0.5h0.5v0.5l0.5-0.5c-0.4,1.4,0,2.4,1.4,2.4v-0.5h0.5v0.5h0.5
		c-0.5,0.5-1.2,0.7-1.9,0.5v0.5h-0.5c0.3,1,0.4,1.8,0.5,2.9h0.5c-0.1,2.1,0.1,3.9,0.5,5.8h0.5c0.2,1.3,0.3,2.1,0.5,3.4h0.5
		c-0.3,1.7-0.7,3.3-1.4,4.8c-1.1-0.5-2.1-0.8-3.4-1c0.5,1.8,0.5,3.6,0,5.3h0.5v0.5h-0.5c-0.1,1.9-1,3.1-2.4,3.8
		c-0.9,0.8-2,1.6-2.9,2.4c-1.2-4.4-0.6-8.5,1.9-11c1.1-1.8,1.1-3.8,0-5.8h-0.5c0-1.8,0-3.5,0-5.3h0.5c-0.5-0.8-0.7-1.8-0.5-2.9h-0.5
		c0-1,0-1.9,0-2.9h-0.5v-0.5h-0.5c0.1-0.6,0-1.1-0.5-1.4c0.5-0.6,0.8-1.2,1-1.9c0.5,0,1,0,1.4,0v0.5c0.5,0,1,0,1.4,0v0.5
		C639.6,408.4,640.1,408.3,640.7,408z M638.3,408.4v0.5h-0.5v0.5h-0.5v0.5c0.4,0.1,0.8,0,1-0.5l0.5,0.5v-0.5h-0.5l0.5-0.5
		L638.3,408.4z M637.4,410.4c-0.4-0.1-0.8,0-1,0.5c0.3,0,0.6,0,1,0V410.4z"/>
</g>
</svg>
